<?xml version="1.0" standalone="no"?>
<!DOCTYPE svg PUBLIC "-//W3C//DTD SVG 20010904//EN"
 "http://www.w3.org/TR/2001/REC-SVG-20010904/DTD/svg10.dtd">
<svg version="1.0" xmlns="http://www.w3.org/2000/svg"
 width="320.000000pt" height="320.000000pt" viewBox="0 0 320.000000 320.000000"
 preserveAspectRatio="xMidYMid meet">
<metadata>
Created by potrace 1.11, written by Peter Selinger 2001-2013
</metadata>
<g transform="translate(0.000000,320.000000) scale(0.100000,-0.100000)"
fill="#000000" stroke="none">
<path d="M0 1859 l0 -1341 23 6 c12 3 97 20 188 38 l166 32 -38 71 c-52 98
-104 243 -130 365 -33 151 -33 429 0 580 65 303 219 567 450 774 73 65 216
163 301 206 92 46 240 98 350 121 151 33 429 33 580 0 303 -65 567 -219 774
-450 65 -73 163 -216 206 -301 46 -92 98 -240 121 -350 33 -151 33 -429 0
-580 -23 -107 -75 -258 -118 -343 -18 -37 -22 -55 -16 -74 9 -25 18 -28 174
-59 90 -19 165 -34 167 -34 1 0 2 603 2 1340 l0 1340 -1600 0 -1600 0 0 -1341z"/>
<path d="M1135 1858 c-10 -30 -66 -261 -63 -263 5 -3 1032 136 1037 141 2 2
-2 32 -10 67 l-14 62 -473 3 c-373 2 -473 0 -477 -10z"/>
<path d="M1591 1460 c-360 -49 -657 -93 -660 -98 -10 -16 -84 -322 -79 -327 5
-5 1505 229 1512 236 2 2 -12 66 -31 142 -35 132 -37 137 -62 136 -14 -1 -320
-41 -680 -89z"/>
<path d="M2065 1015 c-253 -40 -653 -103 -890 -140 -236 -36 -441 -70 -454
-74 -22 -6 -30 -26 -72 -171 -27 -90 -47 -165 -46 -166 3 -3 2018 324 2021
328 7 9 -78 298 -88 297 -6 0 -218 -34 -471 -74z"/>
<path d="M2760 604 c-8 -2 -100 -17 -205 -33 -104 -17 -442 -71 -750 -121
-308 -50 -614 -99 -680 -110 -66 -10 -205 -28 -310 -40 -232 -26 -472 -62
-664 -101 -79 -16 -146 -29 -148 -29 -1 0 -3 -38 -3 -85 l0 -85 1600 0 1600 0
0 84 0 84 -47 10 c-27 6 -88 18 -138 28 -49 9 -91 18 -93 19 -3 2 -80 265
-103 348 -10 36 -18 41 -59 31z"/>
</g>
</svg>
