<svg xmlns="http://www.w3.org/2000/svg" xmlns:xlink="http://www.w3.org/1999/xlink" xmlns:svgjs="http://svgjs.com/svgjs" width="448.13577718" height="355.55575"><g transform="matrix(.99229 0 0 .60296 .00000242 265.2347823)"><svg xmlns="http://www.w3.org/2000/svg" xmlns:xlink="http://www.w3.org/1999/xlink" xmlns:svgjs="http://svgjs.com/svgjs" width="451.62" height="149.8"><svg xmlns="http://www.w3.org/2000/svg" xmlns:xlink="http://www.w3.org/1999/xlink" xmlns:svgjs="http://svgjs.com/svgjs" width="451.62" height="149.8" class="class-taj6r48mr"><svg xmlns="http://www.w3.org/2000/svg" viewBox="0 0 451.62 149.8" class="class-taj6r48mr"><g data-name="Layer 2"><g data-name="Layer 1" class="fill-color-0" fill="#fdd470"><path d="M0 90.29S266.51-100.08 451.62 72z" opacity=".3"/><path d="M451.06 71.68S70.57-40.18 1.59 149.8z"/></g></g></svg></svg><style>.class-taj6r48mr .fill-skin{fill:#f1d9b1}.class-taj6r48mr .fill-skin-shadow{fill:#ebc78d}.class-taj6r48mr .fill-white{fill:#f0f0f0}.class-taj6r48mr .fill-white-shadow{fill:#d8d8d8}.class-taj6r48mr .fill-yellow{fill:#eaea00}.class-taj6r48mr .fill-yellow-shadow{fill:#dada00}.class-taj6r48mr .fill-yellow-shadow-extra{fill:#cbcb00}.class-taj6r48mr .fill-green{fill:#2ba24c}.class-taj6r48mr .fill-green-shadow{fill:#279244}.class-taj6r48mr .fill-color-0-shadow{fill:#fcc94b}.class-taj6r48mr .fill-color-0-shadow-extra{fill:#fbb916}.class-taj6r48mr .fill-color-1{fill:#fdd470}.class-taj6r48mr .fill-color-1-shadow{fill:#fcc94b}.class-taj6r48mr .fill-color-2{fill:#060606}.class-taj6r48mr .fill-color-2-shadow{fill:#050505}.class-taj6r48mr .stroke-color-0-shadow{stroke:#fcc94b}</style></svg></g><g transform="translate(187.3767955 140.14286865) scale(.34673)"><svg xmlns="http://www.w3.org/2000/svg" xmlns:xlink="http://www.w3.org/1999/xlink" xmlns:svgjs="http://svgjs.com/svgjs" width="211.64" height="447.6"><svg xmlns="http://www.w3.org/2000/svg" xmlns:xlink="http://www.w3.org/1999/xlink" xmlns:svgjs="http://svgjs.com/svgjs" width="211.64" height="447.6" class="class-zrrsz5e7y"><svg xmlns="http://www.w3.org/2000/svg" viewBox="0 0 211.64 447.6" class="class-zrrsz5e7y"><g data-name="Layer 2"><g data-name="Layer 1"><path d="M211.64 236.9c0 88.21-47.38 130.79-105.82 130.79S0 325.11 0 236.9 47.38 0 105.82 0s105.82 148.69 105.82 236.9z" class="fill-green" fill="#2ba24c"/><path d="M107.75 367.66c57.55-.92 103.89-43.52 103.89-130.76 0-61.58-23.09-152.61-56.91-202-11.73-10.54-23.91-16.2-35.28-11.58C78.72 39.87 132 170.59 127 231.87c-2.79 34.13-3.13 88.13-19.25 135.79z" class="fill-green-shadow" fill="#279244"/><path d="M109.42 106.52c2.46 28.43 2.9 56.85 3.07 85.27l.3 42.64.17 42.63.04 42.64v42.63c0 14.21-.13 28.42-.23 42.64s-.19 28.42-.39 42.63h-13c-.21-14.21-.3-28.42-.4-42.63s-.21-28.43-.23-42.64V319.7l.07-42.64.18-42.63.3-42.64c.17-28.42.6-56.84 3.07-85.27z" class="fill-color-0"/><path d="M180.46 233.05a107.88 107.88 0 00-13.11 3.29 121.3 121.3 0 00-12.64 4.73 92.38 92.38 0 00-22.55 13.86c-6.54 5.73-12 12.53-15.28 20.24l-.61 1.43-.31.72-.25.75-1 2.95c-.29 1-.5 2-.76 3l-.36 1.51-.24 1.55a61.66 61.66 0 00-.74 12.46v.46a6 6 0 01-12 .16 5 5 0 010-.55l.3-3.72.15-1.86c.05-.62.18-1.23.27-1.85l.6-3.69c.25-1.22.58-2.43.87-3.64l.46-1.82.59-1.78c.41-1.18.78-2.37 1.23-3.54l1.49-3.43.38-.85.44-.83.88-1.64a65.36 65.36 0 0119.45-21.64A98 98 0 01153 236.61a125.42 125.42 0 0113.45-3.73 113 113 0 0113.76-2.19 1.19 1.19 0 011.29 1.08 1.2 1.2 0 01-1 1.27zm-148.72 38.5A111 111 0 0145.43 274a122.21 122.21 0 0113.3 4 96 96 0 0124.79 13.12A70.73 70.73 0 0194 300.84c.77.93 1.6 1.81 2.32 2.79l2.15 2.94c.68 1 1.29 2.06 1.94 3.09a32.05 32.05 0 011.78 3.19 66.05 66.05 0 013 6.7c.4 1.15.76 2.32 1.13 3.48.18.59.39 1.17.55 1.76l.41 1.78a72.43 72.43 0 011.93 14.48 5 5 0 11-10 .56v-.56a62.72 62.72 0 00-.93-12.56l-.28-1.55c-.1-.51-.25-1-.38-1.52-.26-1-.5-2-.79-3a57.06 57.06 0 00-2.23-5.87 27.38 27.38 0 00-1.36-2.84c-.51-.91-1-1.86-1.52-2.76L90 308.24c-.58-.89-1.27-1.7-1.89-2.56a63.33 63.33 0 00-8.88-9.29 90.1 90.1 0 00-22.41-13.59 117.18 117.18 0 00-12.54-4.55 105.11 105.11 0 00-13-3.1h-.07a1.81 1.81 0 01.49-3.59zm14.72-75.44a89 89 0 0111 1.65 97.61 97.61 0 0110.76 2.87 78.6 78.6 0 0120.32 9.93 50.79 50.79 0 0122.27 40.49 6 6 0 11-12 .68 3.69 3.69 0 010-.47v-.21a46.75 46.75 0 00-.46-9.62l-.17-1.2-.27-1.16c-.19-.78-.34-1.57-.56-2.34l-.74-2.29c-.22-.78-.6-1.49-.89-2.24A43.78 43.78 0 0084 216.4a72 72 0 00-17.6-11 95.05 95.05 0 00-9.93-3.81 85.71 85.71 0 00-10.3-2.68 1.4 1.4 0 01.37-2.78z" class="fill-color-0"/><path d="M164.93 168.66a85.73 85.73 0 00-10.32 2.72 95.4 95.4 0 00-9.94 3.84 72.25 72.25 0 00-17.61 11.08 44 44 0 00-11.72 15.87 23.8 23.8 0 00-.88 2.25l-.74 2.29c-.22.77-.36 1.57-.55 2.35l-.27 1.16-.16 1.2a46.19 46.19 0 00-.44 9.63v.19a6 6 0 01-12 .33v-.52a50.71 50.71 0 0122.35-40.39 78.19 78.19 0 0120.35-9.87 98.89 98.89 0 0110.71-2.79 88.78 88.78 0 0111-1.61 1.16 1.16 0 01.31 2.3zM65 137.33a47.75 47.75 0 017.76.55 56.29 56.29 0 017.64 1.66 50.49 50.49 0 017.46 2.78 44.21 44.21 0 017.07 4.06A35.72 35.72 0 01106.2 159a26.22 26.22 0 011.7 4c.21.69.39 1.4.56 2.1a14 14 0 01.39 2.13 22.21 22.21 0 01-.38 8.45 3.69 3.69 0 01-7.09.28l-.09-.28c-1.45-4.52-2.37-8.51-4.12-12.33a30.87 30.87 0 00-7.48-10.43 50.48 50.48 0 00-5.38-4.24 62.08 62.08 0 00-6.08-3.62 84.89 84.89 0 00-13.48-5.52h-.06a1.13 1.13 0 01.32-2.21z" class="fill-color-0"/><path d="M147.16 118.83a66.65 66.65 0 00-14 4.61 49.92 49.92 0 00-12.16 7.69 30 30 0 00-8 10.87 28.19 28.19 0 00-2 12.84 5 5 0 01-10 .58v-.6a35.93 35.93 0 0116.14-28.66 55.41 55.41 0 0114.41-6.84 69.57 69.57 0 017.58-1.93 63.63 63.63 0 017.73-1.09 1.27 1.27 0 01.35 2.51zM79.68 95.4a44.81 44.81 0 019.7 1.77 35.12 35.12 0 019.22 4.18 22.9 22.9 0 0110.69 18.34 4 4 0 11-8 .55 5.42 5.42 0 010-.57 16.44 16.44 0 00-1.08-7.62 17.75 17.75 0 00-4.77-6.53 30.94 30.94 0 00-7.44-4.73 41.87 41.87 0 00-8.62-2.91h-.07a1.25 1.25 0 01.35-2.47z" class="fill-color-0"/><path d="M131.12 85a38.82 38.82 0 00-8.46 2.72 29.68 29.68 0 00-7.33 4.63 18.24 18.24 0 00-4.82 6.6 17.75 17.75 0 00-1.28 7.86 3 3 0 01-6 .24 1.22 1.22 0 010-.27 23.41 23.41 0 012.67-10.1 22.9 22.9 0 016.77-7.68 33.5 33.5 0 018.75-4.46 41.83 41.83 0 019.41-2.06 1.25 1.25 0 01.37 2.52z" class="fill-color-0"/></g></g></svg></svg><style>.class-zrrsz5e7y .fill-skin{fill:#f1d9b1}.class-zrrsz5e7y .fill-skin-shadow{fill:#ebc78d}.class-zrrsz5e7y .fill-white{fill:#f0f0f0}.class-zrrsz5e7y .fill-white-shadow{fill:#d8d8d8}.class-zrrsz5e7y .fill-yellow{fill:#eaea00}.class-zrrsz5e7y .fill-yellow-shadow{fill:#dada00}.class-zrrsz5e7y .fill-yellow-shadow-extra{fill:#cbcb00}.class-zrrsz5e7y .fill-color-0{fill:#fdd470}.class-zrrsz5e7y .fill-color-0-shadow{fill:#fcc94b}.class-zrrsz5e7y .fill-color-0-shadow-extra{fill:#fbb916}.class-zrrsz5e7y .fill-color-1{fill:#fdd470}.class-zrrsz5e7y .fill-color-1-shadow{fill:#fcc94b}.class-zrrsz5e7y .fill-color-2{fill:#060606}.class-zrrsz5e7y .fill-color-2-shadow{fill:#050505}.class-zrrsz5e7y .stroke-color-0-shadow{stroke:#fcc94b}</style></svg></g><g transform="translate(121.33051789 182.05295676) scale(.53814)"><svg xmlns="http://www.w3.org/2000/svg" xmlns:xlink="http://www.w3.org/1999/xlink" xmlns:svgjs="http://svgjs.com/svgjs" width="190.54" height="222.72"><svg xmlns="http://www.w3.org/2000/svg" xmlns:xlink="http://www.w3.org/1999/xlink" xmlns:svgjs="http://svgjs.com/svgjs" width="190.54" height="222.72" class="class-he9we2n5d"><svg xmlns="http://www.w3.org/2000/svg" viewBox="0 0 190.54 222.72" class="class-he9we2n5d"><g data-name="Layer 2"><g data-name="Layer 1"><path d="M84.34 141.58h20.7v81.14h-20.7z" class="fill-color-0" fill="#fdd470"/><circle cx="95.27" cy="95.27" r="95.27" class="fill-green" fill="#2ba24c"/><path d="M190.54 95.27a94.93 94.93 0 00-25.62-65c-22.94-8.79-56.7-15.73-81.58 4.84C42 69.31 72.55 117 74.46 123.72c1.65 5.79 25.87 37.38 2 65a95.31 95.31 0 00114.08-93.45z" class="fill-green-shadow" fill="#279244"/></g></g></svg></svg><style>.class-he9we2n5d .fill-skin{fill:#f1d9b1}.class-he9we2n5d .fill-skin-shadow{fill:#ebc78d}.class-he9we2n5d .fill-white{fill:#f0f0f0}.class-he9we2n5d .fill-white-shadow{fill:#d8d8d8}.class-he9we2n5d .fill-yellow{fill:#eaea00}.class-he9we2n5d .fill-yellow-shadow{fill:#dada00}.class-he9we2n5d .fill-yellow-shadow-extra{fill:#cbcb00}.class-he9we2n5d .fill-color-0-shadow{fill:#fcc94b}.class-he9we2n5d .fill-color-0-shadow-extra{fill:#fbb916}.class-he9we2n5d .fill-color-1{fill:#fdd470}.class-he9we2n5d .fill-color-1-shadow{fill:#fcc94b}.class-he9we2n5d .fill-color-2{fill:#060606}.class-he9we2n5d .fill-color-2-shadow{fill:#050505}.class-he9we2n5d .stroke-color-0-shadow{stroke:#fcc94b}</style></svg></g><g transform="matrix(.465 0 0 .465 58.28702913 207.27507508)"><svg xmlns="http://www.w3.org/2000/svg" xmlns:xlink="http://www.w3.org/1999/xlink" xmlns:svgjs="http://svgjs.com/svgjs" width="190.54" height="222.72"><svg xmlns="http://www.w3.org/2000/svg" xmlns:xlink="http://www.w3.org/1999/xlink" xmlns:svgjs="http://svgjs.com/svgjs" width="190.54" height="222.72" class="class-eblojes2s"><svg xmlns="http://www.w3.org/2000/svg" viewBox="0 0 190.54 222.72" class="class-eblojes2s"><g data-name="Layer 2"><g data-name="Layer 1"><path d="M84.34 141.58h20.7v81.14h-20.7z" class="fill-color-0" fill="#fdd470"/><circle cx="95.27" cy="95.27" r="95.27" class="fill-green" fill="#2ba24c"/><path d="M190.54 95.27a94.93 94.93 0 00-25.62-65c-22.94-8.79-56.7-15.73-81.58 4.84C42 69.31 72.55 117 74.46 123.72c1.65 5.79 25.87 37.38 2 65a95.31 95.31 0 00114.08-93.45z" class="fill-green-shadow" fill="#279244"/></g></g></svg></svg><style>.class-eblojes2s .fill-skin{fill:#f1d9b1}.class-eblojes2s .fill-skin-shadow{fill:#ebc78d}.class-eblojes2s .fill-white{fill:#f0f0f0}.class-eblojes2s .fill-white-shadow{fill:#d8d8d8}.class-eblojes2s .fill-yellow{fill:#eaea00}.class-eblojes2s .fill-yellow-shadow{fill:#dada00}.class-eblojes2s .fill-yellow-shadow-extra{fill:#cbcb00}.class-eblojes2s .fill-color-0-shadow{fill:#fcc94b}.class-eblojes2s .fill-color-0-shadow-extra{fill:#fbb916}.class-eblojes2s .fill-color-1{fill:#fdd470}.class-eblojes2s .fill-color-1-shadow{fill:#fcc94b}.class-eblojes2s .fill-color-2{fill:#060606}.class-eblojes2s .fill-color-2-shadow{fill:#050505}.class-eblojes2s .stroke-color-0-shadow{stroke:#fcc94b}</style></svg></g><g transform="matrix(.16522 0 0 .16522 21.72264433 244.97737459)"><svg xmlns="http://www.w3.org/2000/svg" xmlns:xlink="http://www.w3.org/1999/xlink" xmlns:svgjs="http://svgjs.com/svgjs" width="211.64" height="447.6"><svg xmlns="http://www.w3.org/2000/svg" xmlns:xlink="http://www.w3.org/1999/xlink" xmlns:svgjs="http://svgjs.com/svgjs" width="211.64" height="447.6" class="class-7r1js8r66"><svg xmlns="http://www.w3.org/2000/svg" viewBox="0 0 211.64 447.6" class="class-7r1js8r66"><g data-name="Layer 2"><g data-name="Layer 1"><path d="M211.64 236.9c0 88.21-47.38 130.79-105.82 130.79S0 325.11 0 236.9 47.38 0 105.82 0s105.82 148.69 105.82 236.9z" class="fill-green" fill="#2ba24c"/><path d="M107.75 367.66c57.55-.92 103.89-43.52 103.89-130.76 0-61.58-23.09-152.61-56.91-202-11.73-10.54-23.91-16.2-35.28-11.58C78.72 39.87 132 170.59 127 231.87c-2.79 34.13-3.13 88.13-19.25 135.79z" class="fill-green-shadow" fill="#279244"/><path d="M109.42 106.52c2.46 28.43 2.9 56.85 3.07 85.27l.3 42.64.17 42.63.04 42.64v42.63c0 14.21-.13 28.42-.23 42.64s-.19 28.42-.39 42.63h-13c-.21-14.21-.3-28.42-.4-42.63s-.21-28.43-.23-42.64V319.7l.07-42.64.18-42.63.3-42.64c.17-28.42.6-56.84 3.07-85.27z" class="fill-color-0"/><path d="M180.46 233.05a107.88 107.88 0 00-13.11 3.29 121.3 121.3 0 00-12.64 4.73 92.38 92.38 0 00-22.55 13.86c-6.54 5.73-12 12.53-15.28 20.24l-.61 1.43-.31.72-.25.75-1 2.95c-.29 1-.5 2-.76 3l-.36 1.51-.24 1.55a61.66 61.66 0 00-.74 12.46v.46a6 6 0 01-12 .16 5 5 0 010-.55l.3-3.72.15-1.86c.05-.62.18-1.23.27-1.85l.6-3.69c.25-1.22.58-2.43.87-3.64l.46-1.82.59-1.78c.41-1.18.78-2.37 1.23-3.54l1.49-3.43.38-.85.44-.83.88-1.64a65.36 65.36 0 0119.45-21.64A98 98 0 01153 236.61a125.42 125.42 0 0113.45-3.73 113 113 0 0113.76-2.19 1.19 1.19 0 011.29 1.08 1.2 1.2 0 01-1 1.27zm-148.72 38.5A111 111 0 0145.43 274a122.21 122.21 0 0113.3 4 96 96 0 0124.79 13.12A70.73 70.73 0 0194 300.84c.77.93 1.6 1.81 2.32 2.79l2.15 2.94c.68 1 1.29 2.06 1.94 3.09a32.05 32.05 0 011.78 3.19 66.05 66.05 0 013 6.7c.4 1.15.76 2.32 1.13 3.48.18.59.39 1.17.55 1.76l.41 1.78a72.43 72.43 0 011.93 14.48 5 5 0 11-10 .56v-.56a62.72 62.72 0 00-.93-12.56l-.28-1.55c-.1-.51-.25-1-.38-1.52-.26-1-.5-2-.79-3a57.06 57.06 0 00-2.23-5.87 27.38 27.38 0 00-1.36-2.84c-.51-.91-1-1.86-1.52-2.76L90 308.24c-.58-.89-1.27-1.7-1.89-2.56a63.33 63.33 0 00-8.88-9.29 90.1 90.1 0 00-22.41-13.59 117.18 117.18 0 00-12.54-4.55 105.11 105.11 0 00-13-3.1h-.07a1.81 1.81 0 01.49-3.59zm14.72-75.44a89 89 0 0111 1.65 97.61 97.61 0 0110.76 2.87 78.6 78.6 0 0120.32 9.93 50.79 50.79 0 0122.27 40.49 6 6 0 11-12 .68 3.69 3.69 0 010-.47v-.21a46.75 46.75 0 00-.46-9.62l-.17-1.2-.27-1.16c-.19-.78-.34-1.57-.56-2.34l-.74-2.29c-.22-.78-.6-1.49-.89-2.24A43.78 43.78 0 0084 216.4a72 72 0 00-17.6-11 95.05 95.05 0 00-9.93-3.81 85.71 85.71 0 00-10.3-2.68 1.4 1.4 0 01.37-2.78z" class="fill-color-0"/><path d="M164.93 168.66a85.73 85.73 0 00-10.32 2.72 95.4 95.4 0 00-9.94 3.84 72.25 72.25 0 00-17.61 11.08 44 44 0 00-11.72 15.87 23.8 23.8 0 00-.88 2.25l-.74 2.29c-.22.77-.36 1.57-.55 2.35l-.27 1.16-.16 1.2a46.19 46.19 0 00-.44 9.63v.19a6 6 0 01-12 .33v-.52a50.71 50.71 0 0122.35-40.39 78.19 78.19 0 0120.35-9.87 98.89 98.89 0 0110.71-2.79 88.78 88.78 0 0111-1.61 1.16 1.16 0 01.31 2.3zM65 137.33a47.75 47.75 0 017.76.55 56.29 56.29 0 017.64 1.66 50.49 50.49 0 017.46 2.78 44.21 44.21 0 017.07 4.06A35.72 35.72 0 01106.2 159a26.22 26.22 0 011.7 4c.21.69.39 1.4.56 2.1a14 14 0 01.39 2.13 22.21 22.21 0 01-.38 8.45 3.69 3.69 0 01-7.09.28l-.09-.28c-1.45-4.52-2.37-8.51-4.12-12.33a30.87 30.87 0 00-7.48-10.43 50.48 50.48 0 00-5.38-4.24 62.08 62.08 0 00-6.08-3.62 84.89 84.89 0 00-13.48-5.52h-.06a1.13 1.13 0 01.32-2.21z" class="fill-color-0"/><path d="M147.16 118.83a66.65 66.65 0 00-14 4.61 49.92 49.92 0 00-12.16 7.69 30 30 0 00-8 10.87 28.19 28.19 0 00-2 12.84 5 5 0 01-10 .58v-.6a35.93 35.93 0 0116.14-28.66 55.41 55.41 0 0114.41-6.84 69.57 69.57 0 017.58-1.93 63.63 63.63 0 017.73-1.09 1.27 1.27 0 01.35 2.51zM79.68 95.4a44.81 44.81 0 019.7 1.77 35.12 35.12 0 019.22 4.18 22.9 22.9 0 0110.69 18.34 4 4 0 11-8 .55 5.42 5.42 0 010-.57 16.44 16.44 0 00-1.08-7.62 17.75 17.75 0 00-4.77-6.53 30.94 30.94 0 00-7.44-4.73 41.87 41.87 0 00-8.62-2.91h-.07a1.25 1.25 0 01.35-2.47z" class="fill-color-0"/><path d="M131.12 85a38.82 38.82 0 00-8.46 2.72 29.68 29.68 0 00-7.33 4.63 18.24 18.24 0 00-4.82 6.6 17.75 17.75 0 00-1.28 7.86 3 3 0 01-6 .24 1.22 1.22 0 010-.27 23.41 23.41 0 012.67-10.1 22.9 22.9 0 016.77-7.68 33.5 33.5 0 018.75-4.46 41.83 41.83 0 019.41-2.06 1.25 1.25 0 01.37 2.52z" class="fill-color-0"/></g></g></svg></svg><style>.class-7r1js8r66 .fill-skin{fill:#f1d9b1}.class-7r1js8r66 .fill-skin-shadow{fill:#ebc78d}.class-7r1js8r66 .fill-white{fill:#f0f0f0}.class-7r1js8r66 .fill-white-shadow{fill:#d8d8d8}.class-7r1js8r66 .fill-yellow{fill:#eaea00}.class-7r1js8r66 .fill-yellow-shadow{fill:#dada00}.class-7r1js8r66 .fill-yellow-shadow-extra{fill:#cbcb00}.class-7r1js8r66 .fill-color-0{fill:#fdd470}.class-7r1js8r66 .fill-color-0-shadow{fill:#fcc94b}.class-7r1js8r66 .fill-color-0-shadow-extra{fill:#fbb916}.class-7r1js8r66 .fill-color-1{fill:#fdd470}.class-7r1js8r66 .fill-color-1-shadow{fill:#fcc94b}.class-7r1js8r66 .fill-color-2{fill:#060606}.class-7r1js8r66 .fill-color-2-shadow{fill:#050505}.class-7r1js8r66 .stroke-color-0-shadow{stroke:#fcc94b}</style></svg></g><g transform="matrix(.2725 0 0 .2725 261.53816454 177.79933195)"><svg xmlns="http://www.w3.org/2000/svg" xmlns:xlink="http://www.w3.org/1999/xlink" xmlns:svgjs="http://svgjs.com/svgjs" width="211.64" height="447.6"><svg xmlns="http://www.w3.org/2000/svg" xmlns:xlink="http://www.w3.org/1999/xlink" xmlns:svgjs="http://svgjs.com/svgjs" width="211.64" height="447.6" class="class-q1e6xsbdw"><svg xmlns="http://www.w3.org/2000/svg" viewBox="0 0 211.64 447.6" class="class-q1e6xsbdw"><g data-name="Layer 2"><g data-name="Layer 1"><path d="M211.64 236.9c0 88.21-47.38 130.79-105.82 130.79S0 325.11 0 236.9 47.38 0 105.82 0s105.82 148.69 105.82 236.9z" class="fill-green" fill="#2ba24c"/><path d="M107.75 367.66c57.55-.92 103.89-43.52 103.89-130.76 0-61.58-23.09-152.61-56.91-202-11.73-10.54-23.91-16.2-35.28-11.58C78.72 39.87 132 170.59 127 231.87c-2.79 34.13-3.13 88.13-19.25 135.79z" class="fill-green-shadow" fill="#279244"/><path d="M109.42 106.52c2.46 28.43 2.9 56.85 3.07 85.27l.3 42.64.17 42.63.04 42.64v42.63c0 14.21-.13 28.42-.23 42.64s-.19 28.42-.39 42.63h-13c-.21-14.21-.3-28.42-.4-42.63s-.21-28.43-.23-42.64V319.7l.07-42.64.18-42.63.3-42.64c.17-28.42.6-56.84 3.07-85.27z" class="fill-color-0"/><path d="M180.46 233.05a107.88 107.88 0 00-13.11 3.29 121.3 121.3 0 00-12.64 4.73 92.38 92.38 0 00-22.55 13.86c-6.54 5.73-12 12.53-15.28 20.24l-.61 1.43-.31.72-.25.75-1 2.95c-.29 1-.5 2-.76 3l-.36 1.51-.24 1.55a61.66 61.66 0 00-.74 12.46v.46a6 6 0 01-12 .16 5 5 0 010-.55l.3-3.72.15-1.86c.05-.62.18-1.23.27-1.85l.6-3.69c.25-1.22.58-2.43.87-3.64l.46-1.82.59-1.78c.41-1.18.78-2.37 1.23-3.54l1.49-3.43.38-.85.44-.83.88-1.64a65.36 65.36 0 0119.45-21.64A98 98 0 01153 236.61a125.42 125.42 0 0113.45-3.73 113 113 0 0113.76-2.19 1.19 1.19 0 011.29 1.08 1.2 1.2 0 01-1 1.27zm-148.72 38.5A111 111 0 0145.43 274a122.21 122.21 0 0113.3 4 96 96 0 0124.79 13.12A70.73 70.73 0 0194 300.84c.77.93 1.6 1.81 2.32 2.79l2.15 2.94c.68 1 1.29 2.06 1.94 3.09a32.05 32.05 0 011.78 3.19 66.05 66.05 0 013 6.7c.4 1.15.76 2.32 1.13 3.48.18.59.39 1.17.55 1.76l.41 1.78a72.43 72.43 0 011.93 14.48 5 5 0 11-10 .56v-.56a62.72 62.72 0 00-.93-12.56l-.28-1.55c-.1-.51-.25-1-.38-1.52-.26-1-.5-2-.79-3a57.06 57.06 0 00-2.23-5.87 27.38 27.38 0 00-1.36-2.84c-.51-.91-1-1.86-1.52-2.76L90 308.24c-.58-.89-1.27-1.7-1.89-2.56a63.33 63.33 0 00-8.88-9.29 90.1 90.1 0 00-22.41-13.59 117.18 117.18 0 00-12.54-4.55 105.11 105.11 0 00-13-3.1h-.07a1.81 1.81 0 01.49-3.59zm14.72-75.44a89 89 0 0111 1.65 97.61 97.61 0 0110.76 2.87 78.6 78.6 0 0120.32 9.93 50.79 50.79 0 0122.27 40.49 6 6 0 11-12 .68 3.69 3.69 0 010-.47v-.21a46.75 46.75 0 00-.46-9.62l-.17-1.2-.27-1.16c-.19-.78-.34-1.57-.56-2.34l-.74-2.29c-.22-.78-.6-1.49-.89-2.24A43.78 43.78 0 0084 216.4a72 72 0 00-17.6-11 95.05 95.05 0 00-9.93-3.81 85.71 85.71 0 00-10.3-2.68 1.4 1.4 0 01.37-2.78z" class="fill-color-0"/><path d="M164.93 168.66a85.73 85.73 0 00-10.32 2.72 95.4 95.4 0 00-9.94 3.84 72.25 72.25 0 00-17.61 11.08 44 44 0 00-11.72 15.87 23.8 23.8 0 00-.88 2.25l-.74 2.29c-.22.77-.36 1.57-.55 2.35l-.27 1.16-.16 1.2a46.19 46.19 0 00-.44 9.63v.19a6 6 0 01-12 .33v-.52a50.71 50.71 0 0122.35-40.39 78.19 78.19 0 0120.35-9.87 98.89 98.89 0 0110.71-2.79 88.78 88.78 0 0111-1.61 1.16 1.16 0 01.31 2.3zM65 137.33a47.75 47.75 0 017.76.55 56.29 56.29 0 017.64 1.66 50.49 50.49 0 017.46 2.78 44.21 44.21 0 017.07 4.06A35.72 35.72 0 01106.2 159a26.22 26.22 0 011.7 4c.21.69.39 1.4.56 2.1a14 14 0 01.39 2.13 22.21 22.21 0 01-.38 8.45 3.69 3.69 0 01-7.09.28l-.09-.28c-1.45-4.52-2.37-8.51-4.12-12.33a30.87 30.87 0 00-7.48-10.43 50.48 50.48 0 00-5.38-4.24 62.08 62.08 0 00-6.08-3.62 84.89 84.89 0 00-13.48-5.52h-.06a1.13 1.13 0 01.32-2.21z" class="fill-color-0"/><path d="M147.16 118.83a66.65 66.65 0 00-14 4.61 49.92 49.92 0 00-12.16 7.69 30 30 0 00-8 10.87 28.19 28.19 0 00-2 12.84 5 5 0 01-10 .58v-.6a35.93 35.93 0 0116.14-28.66 55.41 55.41 0 0114.41-6.84 69.57 69.57 0 017.58-1.93 63.63 63.63 0 017.73-1.09 1.27 1.27 0 01.35 2.51zM79.68 95.4a44.81 44.81 0 019.7 1.77 35.12 35.12 0 019.22 4.18 22.9 22.9 0 0110.69 18.34 4 4 0 11-8 .55 5.42 5.42 0 010-.57 16.44 16.44 0 00-1.08-7.62 17.75 17.75 0 00-4.77-6.53 30.94 30.94 0 00-7.44-4.73 41.87 41.87 0 00-8.62-2.91h-.07a1.25 1.25 0 01.35-2.47z" class="fill-color-0"/><path d="M131.12 85a38.82 38.82 0 00-8.46 2.72 29.68 29.68 0 00-7.33 4.63 18.24 18.24 0 00-4.82 6.6 17.75 17.75 0 00-1.28 7.86 3 3 0 01-6 .24 1.22 1.22 0 010-.27 23.41 23.41 0 012.67-10.1 22.9 22.9 0 016.77-7.68 33.5 33.5 0 018.75-4.46 41.83 41.83 0 019.41-2.06 1.25 1.25 0 01.37 2.52z" class="fill-color-0"/></g></g></svg></svg><style>.class-q1e6xsbdw .fill-skin{fill:#f1d9b1}.class-q1e6xsbdw .fill-skin-shadow{fill:#ebc78d}.class-q1e6xsbdw .fill-white{fill:#f0f0f0}.class-q1e6xsbdw .fill-white-shadow{fill:#d8d8d8}.class-q1e6xsbdw .fill-yellow{fill:#eaea00}.class-q1e6xsbdw .fill-yellow-shadow{fill:#dada00}.class-q1e6xsbdw .fill-yellow-shadow-extra{fill:#cbcb00}.class-q1e6xsbdw .fill-color-0{fill:#fdd470}.class-q1e6xsbdw .fill-color-0-shadow{fill:#fcc94b}.class-q1e6xsbdw .fill-color-0-shadow-extra{fill:#fbb916}.class-q1e6xsbdw .fill-color-1{fill:#fdd470}.class-q1e6xsbdw .fill-color-1-shadow{fill:#fcc94b}.class-q1e6xsbdw .fill-color-2{fill:#060606}.class-q1e6xsbdw .fill-color-2-shadow{fill:#050505}.class-q1e6xsbdw .stroke-color-0-shadow{stroke:#fcc94b}</style></svg></g><g transform="matrix(.46782 0 0 .46782 296.14922233 198.9444711)"><svg xmlns="http://www.w3.org/2000/svg" xmlns:xlink="http://www.w3.org/1999/xlink" xmlns:svgjs="http://svgjs.com/svgjs" width="190.54" height="222.72"><svg xmlns="http://www.w3.org/2000/svg" xmlns:xlink="http://www.w3.org/1999/xlink" xmlns:svgjs="http://svgjs.com/svgjs" width="190.54" height="222.72" class="class-xoxp5lzud"><svg xmlns="http://www.w3.org/2000/svg" viewBox="0 0 190.54 222.72" class="class-xoxp5lzud"><g data-name="Layer 2"><g data-name="Layer 1"><path d="M84.34 141.58h20.7v81.14h-20.7z" class="fill-color-0" fill="#fdd470"/><circle cx="95.27" cy="95.27" r="95.27" class="fill-green" fill="#2ba24c"/><path d="M190.54 95.27a94.93 94.93 0 00-25.62-65c-22.94-8.79-56.7-15.73-81.58 4.84C42 69.31 72.55 117 74.46 123.72c1.65 5.79 25.87 37.38 2 65a95.31 95.31 0 00114.08-93.45z" class="fill-green-shadow" fill="#279244"/></g></g></svg></svg><style>.class-xoxp5lzud .fill-skin{fill:#f1d9b1}.class-xoxp5lzud .fill-skin-shadow{fill:#ebc78d}.class-xoxp5lzud .fill-white{fill:#f0f0f0}.class-xoxp5lzud .fill-white-shadow{fill:#d8d8d8}.class-xoxp5lzud .fill-yellow{fill:#eaea00}.class-xoxp5lzud .fill-yellow-shadow{fill:#dada00}.class-xoxp5lzud .fill-yellow-shadow-extra{fill:#cbcb00}.class-xoxp5lzud .fill-color-0-shadow{fill:#fcc94b}.class-xoxp5lzud .fill-color-0-shadow-extra{fill:#fbb916}.class-xoxp5lzud .fill-color-1{fill:#fdd470}.class-xoxp5lzud .fill-color-1-shadow{fill:#fcc94b}.class-xoxp5lzud .fill-color-2{fill:#060606}.class-xoxp5lzud .fill-color-2-shadow{fill:#050505}.class-xoxp5lzud .stroke-color-0-shadow{stroke:#fcc94b}</style></svg></g><g transform="matrix(.30365 0 0 .30365 382.48319557 240.23412682)"><svg xmlns="http://www.w3.org/2000/svg" xmlns:xlink="http://www.w3.org/1999/xlink" xmlns:svgjs="http://svgjs.com/svgjs" width="190.54" height="222.72"><svg xmlns="http://www.w3.org/2000/svg" xmlns:xlink="http://www.w3.org/1999/xlink" xmlns:svgjs="http://svgjs.com/svgjs" width="190.54" height="222.72" class="class-q8atwnxee"><svg xmlns="http://www.w3.org/2000/svg" viewBox="0 0 190.54 222.72" class="class-q8atwnxee"><g data-name="Layer 2"><g data-name="Layer 1"><path d="M84.34 141.58h20.7v81.14h-20.7z" class="fill-color-0" fill="#fdd470"/><circle cx="95.27" cy="95.27" r="95.27" class="fill-green" fill="#2ba24c"/><path d="M190.54 95.27a94.93 94.93 0 00-25.62-65c-22.94-8.79-56.7-15.73-81.58 4.84C42 69.31 72.55 117 74.46 123.72c1.65 5.79 25.87 37.38 2 65a95.31 95.31 0 00114.08-93.45z" class="fill-green-shadow" fill="#279244"/></g></g></svg></svg><style>.class-q8atwnxee .fill-skin{fill:#f1d9b1}.class-q8atwnxee .fill-skin-shadow{fill:#ebc78d}.class-q8atwnxee .fill-white{fill:#f0f0f0}.class-q8atwnxee .fill-white-shadow{fill:#d8d8d8}.class-q8atwnxee .fill-yellow{fill:#eaea00}.class-q8atwnxee .fill-yellow-shadow{fill:#dada00}.class-q8atwnxee .fill-yellow-shadow-extra{fill:#cbcb00}.class-q8atwnxee .fill-color-0-shadow{fill:#fcc94b}.class-q8atwnxee .fill-color-0-shadow-extra{fill:#fbb916}.class-q8atwnxee .fill-color-1{fill:#fdd470}.class-q8atwnxee .fill-color-1-shadow{fill:#fcc94b}.class-q8atwnxee .fill-color-2{fill:#060606}.class-q8atwnxee .fill-color-2-shadow{fill:#050505}.class-q8atwnxee .stroke-color-0-shadow{stroke:#fcc94b}</style></svg></g><g transform="matrix(.82485 0 0 .82485 84.02870255 46.19463597)"><svg xmlns="http://www.w3.org/2000/svg" xmlns:xlink="http://www.w3.org/1999/xlink" xmlns:svgjs="http://svgjs.com/svgjs" width="148.85" height="319.46"><svg xmlns="http://www.w3.org/2000/svg" xmlns:xlink="http://www.w3.org/1999/xlink" xmlns:svgjs="http://svgjs.com/svgjs" width="148.85" height="319.46" class="class-zuqt7lmtq"><svg xmlns="http://www.w3.org/2000/svg" viewBox="0 0 148.85 319.46" class="class-zuqt7lmtq"><g data-name="Layer 2"><g data-name="Layer 1"><path d="M81.5 154.13c.21 15.42-9.3 26.41-9.3 26.41" stroke-width="3" fill="none" stroke-linecap="round" stroke-miterlimit="10" class="stroke-color-0-shadow"/><path fill="none" stroke-linecap="round" stroke-miterlimit="10" d="M70.2 182.47l2.68-2.69" class="stroke-color-0-shadow"/><path d="M84.25 152.55c-5.14 14.54-17.86 21.56-17.86 21.56" stroke-width="3" fill="none" stroke-linecap="round" stroke-miterlimit="10" class="stroke-color-0-shadow"/><path fill="none" stroke-linecap="round" stroke-miterlimit="10" d="M63.84 175.23l3.45-1.59" class="stroke-color-0-shadow"/><path d="M124.39 293.81s-1.81 10.5 1.81 12.81 18.89 7.61 22.12 8.86-8.86 2.94-21.57 2.17-11.7-.88-11.7-.88.53-4.43 1.69-10.54a105.57 105.57 0 001.15-15.49zM51.31 240h-13.5c-2.32 0-2 .6-3.44 10.65-1 7-3.56 21-.64 21.87 0 0 3.2-5.93 7.43-13.46s2.2-10.18 14.36-12.14-4.21-6.92-4.21-6.92z" class="fill-white"/><path d="M33.73 272.54h-.08a2.32 2.32 0 01-2.27-1.79 27.15 27.15 0 010-8.73c.82-7 1.75-17.24 2.94-20.55a1.5 1.5 0 011.11-1.09l1.44-.27z" class="fill-white"/><path d="M44.3 252.57c-3.51-4.46-3.16-10.31-2.86-12.53h-3.63c-2.32 0-2 .6-3.44 10.65-1 7-3.56 21-.64 21.87 0 0 3.2-5.93 7.43-13.46 1.55-2.78 2.26-4.88 3.14-6.53z" class="fill-color-2-shadow"/><path d="M77.31 146.79s-5.78 15.85 0 25.16 27.56 38.5 25.83 45.4S68.07 239.27 51.31 240v8.35s52.74-5.56 60.83-22.06-8.83-82.71-8.83-82.71z" class="fill-color-1-shadow"/><path d="M115.44 153.29l18.48 73.93-9.24 72.91h-7.51s-.58-33.11 3.47-61.55-14-33.32-31.66-77.71c0 0-6.16-14.86 3.63-26.88 5.77-7.08 16.47 3.58 16.47 3.58z" class="fill-color-1-shadow"/><path d="M98.3 63.1s30.43-5.89 33.51-9.44c2.51-2.89 1.53-26.49 1.08-35.08a4.06 4.06 0 00-2.89-3.71c-1.82-.51-4-1.41-5.09-2.88a11.72 11.72 0 01-1.7-3.2.4.4 0 01.6-.45c1.77 1.19 5.77 3.53 5.92.38.19-4-5.83-7.12-5.83-7.12l-2.22-.91s-1.53-.56 6.19-.69c4.24-.07 9.82 7.18 9.25 11.61s6 40.63 5.08 44.1-12.78 11.89-33.2 17.4S98.3 63.1 98.3 63.1z" class="fill-skin"/><path d="M142.2 55.71s-10.88 6.83-20.55 6.69c-4-.06-3.57 3.38-.89 6.89 13.17-5.04 20.69-10.85 21.44-13.58zM66.67 71s-14.78 6.9-23.44 32.87-28.63 37.91-28.63 37.91-11.07 3.58-12.27 6.67S-1 162.06.52 160.4s5.54-7.4 7.66-7.4c1.48 0 .23 2.36-.66 3.77a.32.32 0 00.43.44 18.17 18.17 0 004.47-3.63c2.31-2.7 3.65-4.81 4.42-4.81s17.91-12.73 31-32.94 21.56-25.2 21.56-25.2z" class="fill-skin-shadow"/><path d="M51.31 111.74l-3.56 5.88a10 10 0 01-8.57-5.42l4-8.33z" class="fill-color-0-shadow"/><path d="M60.92 76.86C33.84 98.65 41.71 108 41.71 108l7.76 6.07c6.32 4.24 27.65-29.47 27.65-29.47" class="fill-color-0-shadow"/><path d="M127.6 55.22l-2.53 1c-5-3.38-27.31 7-35.21 10.84-13.13 1.66-30.53 4.81-28.94 9.81 10.8 33.86 9.54 69.26 8.68 81.43a4.58 4.58 0 004.29 4.88c18.19 1.16 35.65-5.12 44-8.71a6 6 0 003.32-7.42C117.49 136 95 88.06 110.5 80.58c19.3-5.39 19.05-13.39 19-14.25l1.95-1a10.64 10.64 0 00-3.85-10.11z" class="fill-color-0" fill="#93058a"/><path d="M88.39 33.35A10.88 10.88 0 0192.61 40c1 4.66 2 4.48 2.59 6 0 0 .25.37-.34 1.71A23.14 23.14 0 0196 54.44s-3.38 3.2-6.61 3.92-1-25.01-1-25.01z" class="fill-skin"/><path d="M96 54.4c-2.26.53-5.74.91-8.23-.77.21 2.94.68 4.94 1.62 4.73 3.23-.72 6.61-3.92 6.61-3.92z" class="fill-skin-shadow"/><path d="M148.81 316v1.49s-2.32 2.26-17.53 1.93c-12.49-.28-16.25-1.21-16.25-1.21v-1.45z" class="fill-white"/><path d="M148.32 315.48c-3.09-1.2-17.17-6.09-21.57-8.54-4.44 4.29-8.59 4.36-10.83 3.95-.59 3.57-.87 5.88-.87 5.88s-1 .11 11.7.88 24.79-.92 21.57-2.17z" class="fill-color-2-shadow"/><path d="M91.38 226.83c-11.68 6.33-29.3 12.71-40.07 13.17v8.35s22.56-2.38 40.43-8.64a49.3 49.3 0 00-.36-12.88zm28.39-56.22c-2.67 3.38-5.87 8.71-4.74 13.83 1.85 8.37 13.41 34.66 13.12 40.44-.25 5-5.25 39.14-1 55.76l6.77-53.42z" class="fill-color-1" fill="#fbb304"/><path d="M131.48 61.16l-1.45.66c-.69.32-1.5.9-1.79.19l-.55-1.37a.37.37 0 00-.68 0c-1 1.77-5.22 4-10.22 5.89-1.9.68-12.23 3.65-14.54 4.5C91.85 74.82 90 71 90 71s-13.54 2.21-29 6c10.77 33.83 9.51 69.17 8.65 81.33a4.58 4.58 0 004.29 4.88c18.19 1.16 35.65-5.12 44-8.71a6 6 0 003.61-5.94 96.64 96.64 0 01-29.66 7S90 126.67 90 114.42 105.77 100 105.77 100c-1.45-9.22-.69-16.8 4.73-19.42a56.11 56.11 0 008.47-3c.15-.06.28-.13.42-.2.41-.19.8-.39 1.18-.58l.43-.23.69-.38.25-.15c.41-.23.79-.47 1.16-.71l.29-.19c.39-.26.77-.53 1.11-.79h.07l.51-.4.2-.17c.27-.23.53-.45.76-.68a1.29 1.29 0 00.17-.16c.13-.12.26-.25.38-.38a1.29 1.29 0 00.16-.17q.28-.3.54-.6l.17-.21.25-.33q.17-.21.3-.42l.18-.28.16-.26c.06-.09.11-.18.16-.27l.21-.4v-.09a6.07 6.07 0 00.7-3.1l1.95-1a18 18 0 00.11-4.27z" class="fill-color-0-shadow"/><path d="M95.83 65.06c-1.32-8.9-8.91-17.21-5.3-25 4.11-8.94-1.32-9.57-1.32-9.57-3.68-5.56-12-5.44-18.76 1.15s3.17 29.94-10.16 34.86c0 0-7 2.74-8.81-1a4.88 4.88 0 003.33 5.06A17.42 17.42 0 0051 78.13c-.95 3.05-4.26 10.2-13.77 5.57 0 0 4.63 13.69 23.33 10.09.13 4.1 3.78 6.36 3.78 6.36a14 14 0 01.16-6.92c8.53.1 15.48-8.4 23.09-10.62 10.16-2.97 9.55-8.61 8.24-17.55z" class="fill-color-2-shadow"/><path d="M81.74 70.63s4.49 7.6-5.53 11.26c-19.11 7-11.89 18.26-11.89 18.26-.34-4.5 3.73-7 5.5-7.91 6.23-2.24 11.78-7.89 17.75-9.63 10.18-3 9.57-8.66 8.26-17.55s-8.91-17.21-5.3-25c4.11-8.94-1.32-9.57-1.32-9.57-3.68-5.57-12-5.44-18.77 1.15 2.21-1.82 5.4-2.77 9.92-1 0 0 5.2 1.93 5.2 5.59s-2.12 7.32 0 13.48S93.44 66.25 91.82 71c0 0-.3-9-10.18-15 0 0 10.24 7.64 4.59 22.22 0 .01.37-6.06-4.49-7.59zM129 308.06l-2.19 3.86s1.1.81 1.92 0a16.11 16.11 0 001.93-3.08zm3.27 1.35l-2.2 3.86s1.11.81 1.93 0a15.88 15.88 0 001.92-3.09zM43.14 255l-3.85-2.2s-.82 1.11 0 1.93a15.9 15.9 0 003.08 1.92zm-1.59 3.2L37.7 256s-.82 1.11 0 1.92a16.11 16.11 0 003.08 1.93z" class="fill-color-2" fill="#040404"/><path d="M91.82 36.35L91.34 38s-2.12-4-4.26-4.14a5.64 5.64 0 014.74 2.49z" class="fill-white"/><path d="M121.68.69l2.18.91s6 3.08 5.83 7.12c-.15 3.15-4.15.81-5.92-.38a.4.4 0 00-.6.45 11.72 11.72 0 001.7 3.2c1 1.47 3.27 2.37 5.09 2.88a4.06 4.06 0 012.93 3.71c0 .71.08 1.54.12 2.45.71-.8 1.43-1.72 1.45-4.34a25.47 25.47 0 00-.9-6.12A13 13 0 00121.68.69z" class="fill-skin-shadow"/></g></g></svg></svg><style>.class-zuqt7lmtq .fill-skin{fill:#f1d9b1}.class-zuqt7lmtq .fill-skin-shadow{fill:#ebc78d}.class-zuqt7lmtq .fill-white{fill:#f0f0f0}.class-zuqt7lmtq .fill-white-shadow{fill:#d8d8d8}.class-zuqt7lmtq .fill-yellow{fill:#eaea00}.class-zuqt7lmtq .fill-yellow-shadow{fill:#dada00}.class-zuqt7lmtq .fill-yellow-shadow-extra{fill:#cbcb00}.class-zuqt7lmtq .fill-green{fill:#2ba24c}.class-zuqt7lmtq .fill-green-shadow{fill:#279244}.class-zuqt7lmtq .fill-color-0-shadow{fill:#84047c}.class-zuqt7lmtq .fill-color-0-shadow-extra{fill:#6e0368}.class-zuqt7lmtq .fill-color-1-shadow{fill:#e2a104}.class-zuqt7lmtq .fill-color-2-shadow{fill:#040404}.class-zuqt7lmtq .stroke-color-0-shadow{stroke:#84047c}</style></svg></g><g transform="translate(229.1687409 -.04623134) scale(.85784)"><svg xmlns="http://www.w3.org/2000/svg" xmlns:xlink="http://www.w3.org/1999/xlink" xmlns:svgjs="http://svgjs.com/svgjs" width="60.61" height="65.49"><svg xmlns="http://www.w3.org/2000/svg" xmlns:xlink="http://www.w3.org/1999/xlink" xmlns:svgjs="http://svgjs.com/svgjs" width="60.61" height="65.49" class="class-b5q9xro0u"><svg xmlns="http://www.w3.org/2000/svg" xmlns:xlink="http://www.w3.org/1999/xlink" viewBox="0 0 60.61 65.49" class="class-b5q9xro0u"><defs><clipPath id="a"><path d="M59.45 127.57h32.77v19.17a16.38 16.38 0 01-16.38 16.38h-5.52a10.88 10.88 0 01-10.88-10.88v-24.67z" fill="none"/></clipPath><clipPath id="b"><path d="M92.22 152.47v-24.9H74.44v21.8s1 8-10.33 11.92a10.63 10.63 0 006 1.84h11.45a10.66 10.66 0 0010.66-10.66z" fill="none"/></clipPath><symbol id="c" data-name="New Symbol 4" viewBox="0 0 151.7 163.89"><path d="M113.61 74.53a37.84 37.84 0 10-64.75 26.59 36.11 36.11 0 0110.63 25.32v1.13h32.56V126a34.85 34.85 0 0110.45-24.64 37.73 37.73 0 0011.11-26.83z" class="fill-yellow-shadow" fill="#dada00"/><path d="M59.7 127.57H92a.25.25 0 01.25.25v24.56a10.75 10.75 0 01-10.75 10.75H70.2a10.75 10.75 0 01-10.75-10.75v-24.56a.25.25 0 01.25-.25z" class="fill-color-0"/><path d="M26.13 75.77a2.09 2.09 0 01-2.08 2.09h-22a2.09 2.09 0 010-4.17h22a2.08 2.08 0 012.08 2.08zm99.44.16a2.09 2.09 0 012.08-2.09h22a2.09 2.09 0 010 4.17h-22a2.08 2.08 0 01-2.08-2.08zm-49.64-49.8a2.09 2.09 0 01-2.09-2.08v-22a2.09 2.09 0 014.17 0v22a2.08 2.08 0 01-2.08 2.08zM40.75 40.64a2.09 2.09 0 01-3 0L22.27 25.11a2.09 2.09 0 112.95-2.95l15.53 15.53a2.09 2.09 0 010 2.95zM111 111.06a2.09 2.09 0 013 0l15.53 15.53a2.09 2.09 0 11-3 2.95L111 114a2.09 2.09 0 010-2.94zm.06-70.31a2.09 2.09 0 010-3l15.53-15.53a2.09 2.09 0 112.95 2.95L114 40.75a2.09 2.09 0 01-2.94 0zM40.64 111a2.09 2.09 0 010 3l-15.53 15.43a2.09 2.09 0 11-2.95-3L37.69 111a2.09 2.09 0 012.95 0z" class="fill-yellow"/><path d="M48.79 72.26a2.09 2.09 0 01-2.08-2.09c0-6.87 3.21-13.32 9.28-18.65a38.66 38.66 0 019.12-6 2.09 2.09 0 111.65 3.83c-.16.07-15.89 7-15.89 20.78a2.09 2.09 0 01-2.08 2.13z" class="fill-white"/><circle cx="50.22" cy="79.77" r="2.36" class="fill-white"/><g clip-path="url(#a)" class="fill-yellow"><path d="M107.19 127.39l-61.67 12.7-1.17-5.69 61.67-12.7 1.17 5.69zm0 11.9l-61.67 12.7-1.17-5.68 61.67-12.71 1.17 5.69zm0 11.9l-61.67 12.7-1.17-5.68 61.67-12.71 1.17 5.69z"/></g><path d="M92.05 126a34.85 34.85 0 0110.45-24.64 37.83 37.83 0 00-18.23-63.7C104.55 48 98.9 77.05 85.76 89.2c-13.39 12.37-11.18 38.37-11.18 38.37h17.47z" class="fill-yellow-shadow-extra" fill="#cbcb00"/><path d="M92.22 152.47v-24.9H74.44v21.8s1 8-10.33 11.92a10.63 10.63 0 006 1.84h11.45a10.66 10.66 0 0010.66-10.66z" class="fill-color-0-shadow" fill="#84047c"/><g clip-path="url(#b)" class="fill-color-0"><path d="M107.19 127.39l-61.67 12.7-1.17-5.69 61.67-12.7 1.17 5.69zm0 11.9l-61.67 12.7-1.17-5.68 61.67-12.71 1.17 5.69zm0 11.9l-61.67 12.7-1.17-5.68 61.67-12.71 1.17 5.69z"/></g></symbol></defs><g data-name="Layer 2"><use width="151.7" height="163.89" transform="scale(.4)" xlink:href="#c" data-name="Layer 1"/></g></svg></svg><style>.class-b5q9xro0u .fill-skin{fill:#f1d9b1}.class-b5q9xro0u .fill-skin-shadow{fill:#ebc78d}.class-b5q9xro0u .fill-white{fill:#f0f0f0}.class-b5q9xro0u .fill-white-shadow{fill:#d8d8d8}.class-b5q9xro0u .fill-yellow{fill:#eaea00}.class-b5q9xro0u .fill-green{fill:#2ba24c}.class-b5q9xro0u .fill-green-shadow{fill:#279244}.class-b5q9xro0u .fill-color-0{fill:#93058a}.class-b5q9xro0u .fill-color-0-shadow-extra{fill:#6e0368}.class-b5q9xro0u .stroke-color-0-shadow{stroke:#84047c}</style></svg></g><g transform="matrix(-.85784 0 0 .85784 364.11351545 59.38921265)"><svg xmlns="http://www.w3.org/2000/svg" xmlns:xlink="http://www.w3.org/1999/xlink" xmlns:svgjs="http://svgjs.com/svgjs" width="95.73" height="292.6"><svg xmlns="http://www.w3.org/2000/svg" xmlns:xlink="http://www.w3.org/1999/xlink" xmlns:svgjs="http://svgjs.com/svgjs" width="95.73" height="292.6" class="class-plp51fsdx"><svg xmlns="http://www.w3.org/2000/svg" viewBox="0 0 95.73 292.6" class="class-plp51fsdx"><g data-name="Layer 2"><g data-name="Layer 1"><path d="M58.06 40.94a3.24 3.24 0 00-2.25-2.11c-1.25-.33-3.84-1.13-4.73-3.27-1.21-2.9-4.18-4-5.43-4.32a.32.32 0 01-.1-.57c.72-.48 2.28-1 4.81.73 0 0-1.94-4.9-1-5.17s1.47.9 2 2.09a1.57 1.57 0 012-.17 4.76 4.76 0 015.31 2.26c2 3.26 5 14 5 14l-4 2z" class="fill-skin-shadow"/><path d="M58 44.73a7.43 7.43 0 016.54-1.26S71 69 69 87.05c0 0-9.3-.4-20.74-10.41l-5.68-29.32s6.74 6.9 19.78 26.07c0 0-.95-17.72-4.36-28.66z" class="fill-white-shadow"/><path d="M32.52 40.08A22.52 22.52 0 0145.05 46l-.45 6.94z" class="fill-white-shadow"/><path d="M49.45 19.61l-2.21-1.72a10.36 10.36 0 01-2.68-4.6c-.49-4.29-4.13-7.47-4.13-7.47-1.66-3.63-10.64-.33-16.54 6S21.22 23.06 26 24.78a6.49 6.49 0 011.52.84c.08.73 1.09 1.55 1.19 2.51C29.83 39.41 23.76 43 23.76 43l14.74 5.53s-3.07-3.27-3.74-5.31C34.64 42.85 36 42 36 41c0-1.93 2.27-5.77 5-6.76s6.09-1.81 7.45-2.28c1.71-.59 1.52-2 1.52-3.48 0 0-.39-.47-1.13-1.45s.06-1.05.21-1.59c.33-1.24-.83-1.12-.3-2.13a1.48 1.48 0 00-.32-1.76l.47-.29c.83-.53 1.39-1.11.55-1.65z" class="fill-skin"/><path d="M34.76 43.22c-.12-.37 1.24 1.58 1.23.56 0-1.92 1.71-8.3 5-9.55 2.69-1 6.09-1.81 7.45-2.28a1.94 1.94 0 001.43-1.55 46.76 46.76 0 00-9-.58 4.14 4.14 0 01-4.06-3.09l-2.21-8.35s6.38-6.47-3.46-2.5-3.27 13.37-3.27 13.37c1.19 5.34-3 13.56-3 13.56l10.77 2.25a7.94 7.94 0 01-.88-1.84z" class="fill-skin-shadow"/><path d="M44.82 11.32a7.83 7.83 0 00-4.3-7.69S37.47-.85 34.39.14A4.43 4.43 0 0137.47 4a5 5 0 00-6.11-.83s2.37.13 3.11 1.23c0 0-9.62-.6-11.49 6 0 0-7.87 3.22.9 14.9 0 0 3.7 4 4.11 7.64 0 0 5.68-3.32 5.13-8a3.75 3.75 0 01-3.66-3c-.3-1.53.31-2.24 1-2.56a2.31 2.31 0 012.64.57 4 4 0 01.9 1.53l.34.83a2.4 2.4 0 002.43 1.47 4.76 4.76 0 01.88-4.68c1.78-2.07 4.17-5.53 3.92-9 0 0 2.57.8 2.8 2" class="fill-color-0" fill="#93058a"/><path d="M41.09 17.62a7.65 7.65 0 012.14-1.38 1.72 1.72 0 01.15.64l.39.32a6.35 6.35 0 01-2.68.42z" class="fill-color-0-shadow"/><path d="M59.47 106.53l-2.37 3.38-21.36 8.71-7.12-8.71-1.4-1.45a6.87 6.87 0 01-1.93-4.58C25 94.45 24.57 62.3 20 42.93c0 0 12.22-2.09 20.31 3.48 11.98 8.21 19.16 60.12 19.16 60.12z" class="fill-white"/><path d="M23.57 67.6c1.31 15.19 1.55 30.3 1.72 36.28a6.87 6.87 0 001.93 4.58l1.4 1.45 7.12 8.71 21.36-8.71 2.17-3.09c-7.53-4-16.26-4.65-18.54-5.46-6.18-2.17-10.53-28.84-10.13-43.92 0 0-2.07 2.74-7 9.23" class="fill-white-shadow"/><path d="M25.9 244L16 255.29l4.67 8.76S27.61 251.54 31 245.4s-5.1-1.4-5.1-1.4z" class="fill-white"/><path d="M30.73 121s-.79 13.64 3.06 20.78c0 0 16.55 50.38 14.36 58.12s-27.47 48.4-27.47 48.4a15.5 15.5 0 008.24 6 153 153 0 0119.4-30.52c12.46-15.12 16.31-20.2 10.26-38.24S46.66 122.2 46.66 122.2z" class="fill-color-0-shadow-extra"/><path d="M75.24 281.25a11.81 11.81 0 01-2.45-6.83v-14.09h-7.55s.13 13-1.37 19.24c0 0 3.9 10.98 11.37 1.68z" class="fill-white"/><path d="M63.87 279.57l-1.09 8.24a2.19 2.19 0 001.72 2.41 36.07 36.07 0 006.4.77l.7-.28a5.24 5.24 0 013.06-.26A107.69 107.69 0 0088 292.58a22.75 22.75 0 005.22-.37c2.24-.68 3.07-1.38 2.14-1.68-6.59-2.1-16.73-9.94-18-11.18a3 3 0 00-2.81-.81l-.64.14a3.09 3.09 0 00-2.28 2.1l-.06.22s-4.86 2.19-7.7-1.43zm-45.99-26.41s-.5 4.3 2.8 6.31a2.71 2.71 0 012.27.7 2.57 2.57 0 01.33 3.06c-1.12 2-3.15 6.91-1.5 14.19 1.48 6.55 2.3 7.57 2.3 7.57s.73 1.34-2.25.55-9.57-7.75-10.31-12.62c0 0-.55-5.21-2.56-5.39a13.73 13.73 0 01-1.67-5.59 3.7 3.7 0 012.14-3.82c2.46-1.12 6.3-3.02 8.45-4.96zm11.2-143.38c16.11-3.86 26.37 0 26.37 0s.7 15.42.7 17.47c0 5.05 16.17 66.12 17.82 72.67S77.26 273 77.26 273c-3.84 2.74-13.73 0-13.73 0s2.2-52.19-5-73.11-19.06-59.76-19.06-59.76c-.24-.75-.46-1.48-.67-2.2l-5.06 3.84c-9.74-10.96-4.66-31.99-4.66-31.99z" class="fill-color-0-shadow"/><path d="M76.76 255c-6.78-5.61-11-13.92-13.31-19.47.85 19.25.08 37.53.08 37.53s9.89 2.74 13.73 0c0-.06-.19-7.7-.5-18.06zM42.1 148.25c-1.59-5-2.58-8.1-2.58-8.1-.24-.75-.46-1.48-.67-2.2l-5.06 3.84c-9.77-11-4.71-32-4.71-32 1.68-.41 3.29-.72 4.83-1 7 3.42 13.61 9.43 18.9 10.74 0 .02-15.45 13.93-10.71 28.72z" class="fill-color-0-shadow-extra"/><path d="M55.67 110.69s-10.39-4-26.79 0l-.39 1.81s15.51-4.07 27.21-.13z" class="fill-white"/><path d="M31.65 113.7h-1.01v-4.21h1.01zm8.62-.85h-1.01v-4.21h1.01zm10.22-.01h1.01v-3.43l-1.01-.78v4.21z" class="fill-color-0-shadow"/><path d="M42.68 123.82s-3.83-4.56-2.51-8.76c.48-1.54 2.22.71.7-2.75-.94-2.15 1.35-1.32 3.22-.38a11.64 11.64 0 013.31 2.48c2 2.09 5.72 6 6.85 6.06a11.14 11.14 0 01-5.73-1.5" class="fill-skin"/><path d="M21.13 70.59c-7.53 9.76-8.36 16.33-8.36 16.33 3.56 7.52 30.06 24 30.06 24 .36 6.93-3.45 8.78-3.45 8.78C31.16 116 2.21 99.21.14 89.72S20 42.93 20 42.93a21.7 21.7 0 011.13 27.66z" class="fill-white"/><path d="M23.93 42.55S44.84 49 54.27 85.81c0 0-1.03-46.81-30.34-43.26z" class="fill-white-shadow"/><path d="M39.4 44.43a4.33 4.33 0 013.93 4c13.05 20.13 14.19 36.87 15 43.09a.59.59 0 01-1 .45L55.08 88a7.86 7.86 0 01-.89-2.75C52 69.46 44.23 54.08 41.37 48.86a1.24 1.24 0 00-.83-.6 12.17 12.17 0 00-3.12-.37c-2.51.27 1.98-3.46 1.98-3.46z" class="fill-color-1"/><path d="M21.43 56.5c-3.89 7.31-16.55 26.3-14 30.55s10.71 16.37 35 28c-.9 3.52-3.08 4.59-3.08 4.59C31.16 116 2.21 99.21.14 89.72S20 42.93 20 42.93s5.31 6.25 1.43 13.57z" class="fill-white-shadow"/><path d="M23.93 42.55L26 39s7-.31 15.16 5.92L38.26 50c-4.84-3.7-8.84-7-14.33-7.45z" class="fill-white"/><path d="M23 10.42c1.87-6.62 11.49-6 11.49-6-.74-1.1-3.11-1.23-3.11-1.23a5 5 0 016.09.81A4.43 4.43 0 0034.39.14a4.4 4.4 0 01.47-.1c3.8.66 3.75 4.35 4.9 4.66 1.34.38 2.67 2.82 2.67 2.82l-2.67-1.26c1.42 1 0 3.27 0 3.27s-1.8-3.71-1.5 0-.6 2.89-2.08 9c-.67 2.8-.2 4.34.52 5.21a2.4 2.4 0 01-2.4-1.47l-.3-.79a4 4 0 00-.86-1.54 2.31 2.31 0 00-2.64-.57c-.69.32-1.3 1-1 2.56a3.75 3.75 0 003.66 3c.55 4.67-5.13 8-5.13 8-.41-3.68-4.11-7.64-4.11-7.64C15.11 13.64 23 10.42 23 10.42z" class="fill-color-0-shadow"/><path d="M93.21 292.21a22.75 22.75 0 01-5.22.37 107.69 107.69 0 01-13.33-2.13 5.24 5.24 0 00-3.06.26l-.7.28a36.07 36.07 0 01-6.4-.77 2.19 2.19 0 01-1.72-2.41l.08-.57c5.46 1.11 18.57 3.77 23.87 4.45 6.66.86 8.62-1.16 8.62-1.16.93.3.1 1-2.14 1.68zm-71.38-6.67c-3-.8-9.57-7.75-10.31-12.62 0 0-.55-5.21-2.56-5.39a13.73 13.73 0 01-1.67-5.59 3.7 3.7 0 012.14-3.82l.46-.21c.77 9.64 3.5 16.93 6.78 21.86 3.55 5.32 7.41 5.22 7.41 5.22.09.18.52 1.28-2.25.55z" class="fill-color-1"/></g></g></svg></svg><style>.class-plp51fsdx .fill-skin{fill:#f1d9b1}.class-plp51fsdx .fill-skin-shadow{fill:#ebc78d}.class-plp51fsdx .fill-white{fill:#f0f0f0}.class-plp51fsdx .fill-white-shadow{fill:#d8d8d8}.class-plp51fsdx .fill-yellow{fill:#eaea00}.class-plp51fsdx .fill-yellow-shadow{fill:#dada00}.class-plp51fsdx .fill-yellow-shadow-extra{fill:#cbcb00}.class-plp51fsdx .fill-green{fill:#2ba24c}.class-plp51fsdx .fill-green-shadow{fill:#279244}.class-plp51fsdx .fill-color-0-shadow{fill:#84047c}.class-plp51fsdx .fill-color-0-shadow-extra{fill:#6e0368}.class-plp51fsdx .fill-color-1{fill:#fbb304}.class-plp51fsdx .fill-color-1-shadow{fill:#e2a104}.class-plp51fsdx .stroke-color-0-shadow{stroke:#84047c}</style></svg></g></svg>