<svg xmlns="http://www.w3.org/2000/svg" width="870" height="492.008" viewBox="0 0 230.188 130.177"><g transform="translate(130.213 -81.477)"><rect width="230.188" height="130.177" x="-130.213" y="81.477" rx="5.292" ry="5.292" fill="#eee"/><g transform="matrix(2 0 0 2 -124.921 98.024)" stroke-width=".5"><rect height="26.458" width="26.458" rx="1.984" ry="1.984" fill="#222"/><rect width="23.813" height="23.813" x="1.323" y="1.323" rx="1.323" ry="1.323" fill="#f44336"/><path d="M11.252 2.693a1.16 1.16 0 00-1.068.682c-.076.165-.095.266-.094.498.001.237.022.33.105.492.102.197.283.396.467.51.074.046.174.078.274.104l.11.03c.004.034.005.076.007.134.005.133.008.326.008.562 0 .355-.002.536-.008.63l-.018-.005a5.508 5.508 0 01-.224-.058c-.182-.05-.42-.123-.676-.206-.988-.319-1.593-.428-2.018-.314a1.238 1.238 0 00-.451.21c-.156.116-.34.289-.647.587-.233.227-.39.363-.515.437a.608.608 0 01-.35.096c-.085 0-.104-.01-.097-.002-.002-.012-.006-.03-.006-.063v-.234h-.598v.131l-.082-.04a2.164 2.164 0 01-.267-.175l-.15-.123c-.038-.03-.05-.05-.114-.068a.146.146 0 00-.03-.004.293.293 0 00-.042.004l-.047.021-.02.02s-.01.011-.013.017c-.03.05-.023.074-.022.092.002.036.008.062.014.096.06.384.342.77.691.947l.082.041v.176h-.447l-.17.53-.381 1.167-.58 1.774c-.188.575-.446 1.37-.576 1.765l-.21.633H1.815l.293.344c.597.702 1.29 1.073 2.393 1.289.375.073.474.08 1.193.08.721 0 .819-.006 1.188-.08 1.036-.208 1.814-.61 2.334-1.223l.328-.388-.75-.022-.402-.012-.038-.119-.226-.697c-.088-.271-.24-.75-.338-1.06a50.59 50.59 0 00-.234-.729c-.028-.082-.164-.505-.3-.928-.135-.424-.354-1.1-.484-1.504l-.261-.816-.326-.012-.118-.004V7.885l.258-.012c.106-.005.214-.013.303-.021.09-.01.15-.016.205-.032.3-.087.559-.214.912-.447.248-.164.394-.253.504-.295.11-.042.192-.045.346-.037.274.015.424.074 1.006.398.209.117.454.25.556.301.256.128.679.274.903.3l.037.005-.022 1.541-.02 1.625-.304.615-.332.668.021 1.946.02 1.789H8.707v.78l-.385.635-.64 1.057c-.133.217-.253.413-.287.479l-.135.263h4.142a479.839 479.839 0 003.631-.015c.1-.002.179-.002.233-.004l.062-.002a.355.355 0 00.024-.002l.017-.004a.344.344 0 00.025-.01l.034-.021.039-.092-.002-.024-.004-.013-.006-.016-.01-.017-.017-.032a9.6 9.6 0 00-.23-.328 126.117 126.117 0 01-.614-.834c-.03-.039-.224-.304-.428-.582l-.345-.472v-.745l-.887-.01-.641-.005-.013-1.825-.014-1.978-.082-.145a21.842 21.842 0 01-.309-.629l-.234-.492V8.04l.096-.017c.375-.074.676-.211 1.525-.684.479-.267.745-.34 1.012-.303.15.02.293.09.724.377.477.316.902.462 1.363.463.074 0 .091.003.108.004v.035c-.018.001-.042.004-.127.004h-.316l-.09.248c-.038.104-.213.643-.399 1.219-.186.575-.402 1.236-.478 1.467-.077.232-.292.89-.479 1.466-.186.576-.379 1.161-.424 1.293l-.054.162-.453.008-.786.012.225.303c.364.492 1.028.929 1.738 1.154.94.298 2.177.35 3.2.139a4.356 4.356 0 001.148-.395c.466-.228.783-.48 1.14-.908l.25-.299H19.395l-.033-.098a51.194 51.194 0 01-.24-.744 78.1 78.1 0 00-.232-.728 80.022 80.022 0 01-.217-.668l-.246-.77-.723-2.26-.191-.601h-.448v-.037c0-.045.003-.058.005-.071.467-.163.831-.572.917-1.046l.088-.479-.44.354a2.71 2.71 0 01-.339.216c-.095.053-.164.08-.23.108v-.18h-.598v.237c0 .034-.004.05-.006.062-.01 0-.026 0-.059-.006a.726.726 0 01-.304-.134 4.147 4.147 0 01-.477-.422c-.342-.335-.559-.533-.77-.65-.21-.119-.41-.146-.671-.145-.475 0-.796.07-1.68.353a19.239 19.239 0 01-.945.274c-.001-.03-.004-.05-.004-.088a22.38 22.38 0 010-.565l.006-.71.035-.01c.327-.097.573-.318.728-.645a.937.937 0 00.096-.47.985.985 0 00-.098-.481 1.166 1.166 0 00-1.066-.69zm5.193 5.854c.005.064.011.169.014.348a303.205 303.205 0 01-.004 4.74l-.002.138c-.02.003-.028.005-.066.006-.134.006-.381.008-.817.008-.372 0-.618-.002-.768-.008-.029 0-.036-.002-.058-.004l.006-.02.103-.325c.168-.508.343-1.041.602-1.832l.574-1.768c.214-.658.396-1.218.416-1.283zm-11.008.059l.008 2.554.008 2.627h-.861c-.27 0-.52-.002-.7-.006-.061-.001-.1-.004-.144-.006l.016-.052c.035-.119.087-.28.144-.456.116-.351.363-1.11.55-1.685l.575-1.758.338-1.031c.023-.072.046-.133.066-.187zm.637.003c.01.022.01.02.022.051.07.188.188.554.41 1.25l.478 1.498.479 1.496c.13.408.256.799.28.871-.04.002-.075.005-.13.006-.174.005-.415.006-.681.006-.43 0-.673-.002-.805-.008-.036-.001-.043-.003-.063-.006 0-.036 0-.078-.002-.138a303.997 303.997 0 01-.012-2.496c0-1.451-.001-2.146.016-2.461.003-.055.003-.036.008-.069zm11.01.008c0 .003.001.001.002.004.055.15.15.449.332 1.027.082.262.325 1.02.652 2.036.233.722.408 1.268.524 1.638.058.185.102.326.13.422l.01.033c-.013.001-.014.002-.03.002-.136.006-.379.008-.79.008h-.85v-2.62c0-1.493-.001-2.198.016-2.51l.004-.04z" fill="#222"/><path d="M.728 18.52v4.168a2.772 2.772 0 002.778 2.778h19.447a2.772 2.772 0 002.778-2.778v-4.167z" fill="#222"/><g style="line-height:4.23333311px;-inkscape-font-specification:'Montserrat Medium';text-align:center" aria-label="EQUALITY" font-weight="500" font-size="4.233" font-family="Montserrat" text-anchor="middle" fill="#eee" stroke-width=".25" stroke-linejoin="round" stroke-opacity=".909"><path style="-inkscape-font-specification:'Montserrat Medium'" d="M2.736 20.325h2.171v.496H3.303v.732h1.44v.495h-1.44v.745h1.655v.496H2.736zM8.625 23.627q-.17.153-.39.237-.22.09-.431.09-.28 0-.521-.166-.241-.16-.41-.457-.44 0-.8-.203-.36-.203-.568-.55-.207-.352-.207-.775 0-.424.207-.77.207-.348.567-.547.364-.199.805-.199.44 0 .8.2.364.198.571.545.208.347.208.77 0 .33-.132.623-.127.288-.36.5-.232.211-.537.317.224.237.444.237.229 0 .534-.237zm-2.747-1.824q0 .28.135.512.14.233.368.368.233.136.504.136.267 0 .495-.136.229-.135.36-.368.136-.233.136-.512 0-.28-.136-.508-.131-.233-.36-.364-.228-.136-.495-.136-.27 0-.504.136-.233.13-.368.364-.135.228-.135.508zM9.499 22.07q0 .35.199.55.199.199.533.199.335 0 .525-.2.195-.198.195-.55v-1.744h.567v1.744q0 .386-.157.674-.156.283-.448.436-.288.152-.682.152-.398 0-.694-.152-.292-.153-.449-.436-.157-.288-.157-.674v-1.744H9.5zM14.296 23.289l-.262-.627h-1.448l-.262.627h-.589l1.3-2.964h.588l1.283 2.964zm-1.507-1.114h1.042l-.517-1.244zM15.262 20.325h.567v2.451h1.279v.513h-1.846zM17.552 20.325h.568v2.964h-.568zM18.52 20.325h2.418v.504h-.923v2.46h-.572v-2.46h-.923zM23.723 20.325l-1.08 1.994v.97h-.567v-.949l-1.105-2.015h.576l.808 1.393.796-1.393z"/></g></g><g transform="matrix(2 0 0 2 -13.796 98.024)" stroke-width=".5"><rect ry="1.984" rx="1.984" width="26.458" height="26.458" fill="#222"/><rect ry="1.323" rx="1.323" y="1.323" x="1.323" height="23.813" width="23.813" fill="#ffeb3b"/><path d="M10.833 21.487a5.055 5.055 0 01-.776-.25 2.653 2.653 0 00-.3-.116c-.499-.164-.912-.448-1.163-.8-.35-.491-1.48-2.543-1.482-2.69a.7.7 0 01.092-.216c.228-.389.334-.804.275-1.077a1.61 1.61 0 01-.035-.26c0-.114-.02-.122-.39-.168a2.472 2.472 0 01-.383-.072c-.082-.032-.091-.052-.091-.196 0-.088.016-.17.037-.183.026-.016.03-.126.012-.376-.076-1.086.034-1.55.48-2.029l.105-.11L7 12.457a35.583 35.583 0 01-.748-1.898c-.063-.199-.162-.7-.203-1.03a5.074 5.074 0 00-.07-.436 2.524 2.524 0 01-.03-.435c0-.173-.01-.405-.022-.515l-.02-.2-.113.125c-.139.154-.313.241-.424.213a.713.713 0 01-.217-.145l-.135-.125v-.27c0-.16-.014-.272-.033-.272-.053 0-.038-.373.017-.447.072-.094.06-.2-.034-.311-.046-.054-.083-.117-.083-.139a.406.406 0 00-.056-.134c-.052-.089-.052-.107 0-.296.03-.11.056-.257.056-.326 0-.12-.007-.128-.161-.183a.708.708 0 01-.438-.369c-.092-.16-.098-.193-.099-.529 0-.32.01-.386.102-.622.12-.312.327-.604.54-.76.137-.103.157-.135.2-.326a.86.86 0 01.449-.586c.137-.075.233-.097.527-.12.197-.017.39-.04.43-.052.053-.017.086 0 .14.076.07.098.28.206.4.206.055 0 .061.019.045.137-.021.158.014.194.19.195.065 0 .173.016.241.035.152.043.353-.004.441-.1.096-.106.116-.081.116.14 0 .247-.086.424-.207.424-.098 0-.274.109-.34.21-.076.116-.02.232.164.339.168.099.187.159.076.25-.073.06-.073.064-.017.166.076.134.08.563.007.767-.087.248-.363.485-.76.655l-.215.091.15.215c.28.397.396.681.494 1.195.094.492.285 1.02.579 1.595.504.989.558 1.108.713 1.567.085.25.154.478.154.507 0 .029.015.052.033.052.05 0 1.504-.263 1.515-.274a6.15 6.15 0 00.08-.645c0-.062-.114-.132-.756-.462-1.1-.566-1.518-.784-1.534-.8-.008-.007 0-.027.017-.044.02-.02.129-.009.297.032a667.155 667.155 0 001.653.397c.307.074.578.135.602.135.057 0 .485-.325.485-.368 0-.051-.87-1.774-.902-1.786-.015-.006-.028-.033-.028-.059 0-.025-.015-.047-.033-.047-.019 0-.034-.022-.034-.05a.455.455 0 00-.102-.215c-.011-.01-.02-.042-.02-.073 0-.056.092.037.82.837l.66.723.281.307h.576l.087-.424.242-1.171c.084-.411.158-.752.163-.757.011-.012.036.372.085 1.338.019.366.043.77.052.9l.019.233.255.098c.14.054.265.099.277.099.025 0 1.49-1.354 1.65-1.527.125-.133.175-.15.149-.052-.01.037-.03.067-.047.067-.016 0-.03.022-.03.05 0 .027-.013.05-.029.05s-.038.026-.048.058c-.019.056-.14.272-.247.44-.03.045-.236.4-.46.79l-.405.706.146.101.147.1.556-.153c.306-.085.84-.236 1.185-.335.345-.1.639-.177.652-.172.013.005-.423.301-.97.657-.704.46-.987.663-.976.698.008.028.056.162.106.3.082.223.092.298.098.73.007.47.01.488.117.715.095.201.112.275.123.55.011.275.003.338-.057.456-.091.178-.089.21.024.318.065.062.186.114.39.17.566.15 1.113.414 1.289.62.185.215.292.478.34.826.087.652.119 3.271.137 3.743l.019.485-.192.379c-.262.517-.446.793-.63.947a3.335 3.335 0 00-.384.428c-.125.165-.293.361-.371.436-.283.27-.873.717-1.187.9-.176.102-.431.256-.569.343a5.154 5.154 0 01-1.211.565c-.257.087-.617-2.065-.8-2-.342.123-.805.222-1.012.217a1.799 1.799 0 01-.266-.035zm.324-8.177a.55.55 0 00.141-.374c0-.102-.015-.12-.15-.18a1.486 1.486 0 01-.329-.235l-.18-.17-.36.112c-.448.14-.464.174-.193.416.134.119.258.192.43.253.134.047.308.123.388.17.176.1.167.1.253.008zm-.537-1.64c.01-.039-.009-.128-.042-.2l-.061-.129-.83-.007-.831-.007.173.09c.11.058.212.145.278.24.058.082.18.226.27.32l.166.17.43-.203c.311-.148.433-.223.447-.274z" fill="#222"/><path d="M.728 18.52v4.168a2.772 2.772 0 002.778 2.778h19.447a2.772 2.772 0 002.778-2.778v-4.167z" fill="#222"/><g style="line-height:4.23333311px;-inkscape-font-specification:'Montserrat Medium';text-align:center" aria-label="LIBERTY" font-weight="500" font-size="4.233" font-family="Montserrat" text-anchor="middle" fill="#eee" stroke-width=".25" stroke-linejoin="round" stroke-opacity=".909"><path style="-inkscape-font-specification:'Montserrat Medium'" d="M4.571 20.325h.568v2.451h1.278v.513H4.571zM6.862 20.325h.567v2.964h-.567zM9.476 20.325q.474 0 .745.2.275.198.275.541 0 .246-.14.423-.135.174-.376.233.296.055.461.254.17.2.17.496 0 .38-.297.6-.292.217-.8.217H8.16v-2.964zm-.03 1.211q.22 0 .344-.097.127-.098.127-.271 0-.17-.127-.263-.123-.093-.343-.089h-.72v.72zm0 1.262q.272.004.424-.102.152-.106.152-.296 0-.182-.152-.284-.152-.106-.423-.102h-.72v.784zM11.161 20.325h2.172v.496h-1.605v.732h1.44v.495h-1.44v.745h1.656v.496H11.16zM15.81 23.289l-.512-.877q-.034.005-.106.005h-.669v.872h-.567v-2.964h1.236q.576 0 .889.267.313.267.313.753 0 .348-.152.593-.148.246-.436.368l.652.983zm-1.287-1.372h.669q.322 0 .49-.14.17-.14.17-.415 0-.27-.17-.406-.168-.135-.49-.135h-.669zM16.685 20.325h2.417v.504h-.923v2.46h-.571v-2.46h-.923zM21.887 20.325l-1.08 1.994v.97h-.567v-.949l-1.105-2.015h.576l.809 1.393.796-1.393z"/></g></g><g transform="matrix(1.6 0 0 1.6 -8.398 159.087)" stroke-width=".5"><rect height="26.458" width="26.458" rx="1.984" ry="1.984" fill="#222"/><rect width="23.813" height="23.813" x="1.323" y="1.323" rx="1.323" ry="1.323" fill="#d3d3d3"/><path d="M17.239 5.259a.948.948 0 00-.571.002c-.25.081-.284.133-.424.64-.064.234-.137.492-.163.575-.026.083-.061.21-.079.28a9.955 9.955 0 01-.085.314c-.092.317-.2.707-.203.733a3.758 3.758 0 01-.06.222c-.031.109-.076.274-.1.367l-.16.606c-.065.24-.116.443-.114.449a2.473 2.473 0 00-.386 2.03c.01.135.09.32.188.43.084.094.12.115.24.142.13.028.158.025.321-.027a.677.677 0 00.293-.16c.177-.158.19-.191.43-1.07l.22-.81.072-.249c.033-.115.061-.221.063-.235 0-.015.034-.138.073-.276.04-.137.104-.367.143-.51.04-.144.105-.376.145-.514.04-.14.072-.258.07-.265a2.609 2.609 0 01.064-.245c.153-.529.45-1.612.48-1.749a.524.524 0 00-.021-.261c-.038-.143-.054-.17-.153-.26a.763.763 0 00-.283-.16zm-9.912-2.64a.952.952 0 00-.52-.011c-.142.035-.185.057-.257.126-.076.074-.102.14-.235.596-.083.282-.158.547-.166.59a3.59 3.59 0 01-.073.261c-.032.102-.062.21-.067.241-.004.03-.023.103-.04.161-.033.104-.17.604-.317 1.154-.04.15-.104.385-.142.52a12.53 12.53 0 00-.092.352c-.013.058-.06.247-.105.419-.29 1.127-.36 1.498-.331 1.791a.67.67 0 00.086.32.51.51 0 00.374.278.445.445 0 00.292-.022c.27-.09.508-.355.555-.617.01-.056.045-.191.078-.3.033-.109.067-.232.076-.275.009-.042.042-.165.073-.274a66.448 66.448 0 00.283-1.008l.103-.38c.049-.187.06-.23.172-.628.043-.151.089-.321.102-.378.013-.057.047-.18.076-.271.028-.093.05-.172.05-.178-.002-.005.03-.124.069-.264l.144-.517.131-.474c.164-.577.176-.76.06-.937a.701.701 0 00-.379-.275zm1.7.762l-.039.136c-.128.46-.196.71-.194.718.001.005-.035.141-.08.302-.09.317-.17.615-.28 1.024-.038.144-.097.356-.13.471-.032.115-.076.28-.096.365-.02.086-.047.186-.06.223a5.357 5.357 0 00-.08.287c-.03.122-.07.269-.087.327-.064.217-.19.678-.187.686a4.7 4.7 0 01-.073.27 3.722 3.722 0 00-.073.274.767.767 0 01-.032.122c-.033.107-.167.592-.239.87a.42.42 0 00-.02.16c.008.018.115.058.237.092l.47.128c.137.037.375.102.529.146.153.044.284.078.29.076.007-.002.105.024.218.058.168.049.433.122.767.21.32.085.589.158.828.225.16.045.296.081.301.08a4.44 4.44 0 01.287.075 54.278 54.278 0 00.74.203c.158.043.38.102.492.13.113.03.279.076.37.105.09.028.17.05.178.048.006-.002.091.02.188.048a.897.897 0 00.18.043c.007-.012.12-.43.177-.649.024-.093.068-.25.097-.35.03-.099.052-.185.05-.192a2.358 2.358 0 01.058-.225c.065-.226.187-.67.302-1.102.039-.143.097-.355.13-.47.032-.116.075-.28.095-.366.02-.085.048-.185.061-.222a5.34 5.34 0 00.08-.288c.03-.122.07-.268.087-.326.068-.233.19-.678.187-.687a5.333 5.333 0 01.08-.302l.14-.502c.086-.303.148-.562.137-.566a14.902 14.902 0 00-.56-.157 4.02 4.02 0 01-.266-.07c-.141-.04-.386-.106-.544-.148a30.365 30.365 0 01-.52-.144 3.068 3.068 0 00-.242-.064 4.005 4.005 0 01-.273-.073 3.373 3.373 0 00-.274-.072 1.073 1.073 0 01-.149-.04 5.511 5.511 0 00-.28-.079c-.079-.02-.243-.063-.366-.097l-.483-.132c-.396-.106-.702-.19-1.02-.278a7.707 7.707 0 00-.313-.083 18.786 18.786 0 01-.672-.182zm6.935 2.137a6.173 6.173 0 00-.315-.083 3.653 3.653 0 01-.239-.062c-.021-.01-.049.056-.088.212-.09.354-.102.398-.176.667-.04.14-.07.259-.068.265.002.005-.03.13-.072.275-.04.146-.073.27-.071.275.003.01-.029.13-.198.74-.045.163-.08.3-.08.306.003.008-.138.544-.215.82a188.579 188.579 0 01-.522 1.994.602.602 0 00-.026.122c.004.019.078.041.458.14.127.033.232.056.233.051.01-.029.125-.476.152-.591.018-.078.062-.248.098-.378.082-.3.301-1.134.342-1.305.017-.071.055-.21.084-.308.029-.098.051-.184.05-.19-.003-.008.03-.13.072-.272a2.76 2.76 0 00.072-.273c-.002-.008.03-.132.072-.276a4.12 4.12 0 00.072-.272 1.295 1.295 0 01.037-.149c.021-.076.07-.256.107-.4a290.244 290.244 0 01.28-1.08l.05-.194zM8.127 3.452c-.093-.022-.115-.02-.125.01a24.022 24.022 0 00-.335 1.256c-.033.12-.093.34-.132.49l-.143.536a9.623 9.623 0 00-.087.338 5.333 5.333 0 01-.072.273 8.607 8.607 0 00-.08.3c-.029.12-.134.52-.336 1.278-.035.13-.105.4-.155.6-.051.2-.106.405-.123.456a.422.422 0 00-.026.117c.003.012.056.034.118.048.062.015.212.054.332.087.12.033.225.06.231.058.012-.003.11-.357.185-.668.017-.071.067-.264.111-.43l.138-.516c.031-.12.086-.323.121-.452.035-.13.063-.24.062-.245a4.082 4.082 0 01.072-.273c.04-.145.073-.27.071-.276-.002-.007.03-.13.073-.272.042-.142.074-.265.072-.274a2.241 2.241 0 01.066-.252c.038-.13.068-.242.066-.248a1.181 1.181 0 01.04-.16c.024-.082.075-.275.115-.429l.146-.56c.16-.606.164-.629.132-.643a8.492 8.492 0 00-.537-.149zm1.333 7.106l-.009.03c-.04.126-.077.26-.076.27.001.011-.047.172-.092.311a.422.422 0 00-.026.097.541.541 0 01-.026.108 8.627 8.627 0 00-.06.207l-.056.189c-.013.046-.03.103-.034.126-.006.023-.021.082-.036.13a20.444 20.444 0 00-.114.4c-.018.06-.045.157-.06.215-.03.111-.086.309-.122.43a6.89 6.89 0 00-.053.188c-.016.064-.045.168-.064.231-.071.246-.083.287-.11.394a6.08 6.08 0 01-.074.264l-.054.187c-.059.209-.076.27-.103.357a.42.42 0 00-.022.095c.002.004.09.032.196.06.258.073.695.192.81.222l.422.112c.181.049.333.088.338.088.009 0 .029-.063.096-.304l.059-.199a.888.888 0 00.03-.11c-.001-.006.012-.058.029-.116l.066-.23c.02-.07.047-.16.061-.2a.31.31 0 00.02-.08 2.446 2.446 0 01.076-.277 4.428 4.428 0 00.074-.256 44.304 44.304 0 00.118-.42l.064-.23c.015-.056.038-.134.051-.174.013-.04.029-.096.035-.124a.987.987 0 01.029-.1.79.79 0 00.025-.09c.01-.056.057-.22.095-.334a.46.46 0 00.025-.097.281.281 0 01.02-.076c.013-.039.044-.146.068-.239.024-.092.055-.2.068-.238a.274.274 0 00.02-.076.362.362 0 01.025-.087.789.789 0 00.035-.125l.007-.044-.075-.023a8.224 8.224 0 00-.23-.063 38.098 38.098 0 01-.378-.1 92.23 92.23 0 00-.811-.22 6.619 6.619 0 01-.184-.051zm.92 5.044c-.162-.042-.391-.102-.51-.135a2.368 2.368 0 00-.229-.055 1.71 1.71 0 01-.192-.046c-.22-.06-.747-.196-.923-.238-.395-.094-.808-.2-.832-.214-.015-.008-.034-.013-.043-.01-.015.003-.09.256-.102.342-.003.02-.045.184-.092.363l-.086.325.062.026c.034.014.07.024.08.022.008-.002.154.032.322.076.566.146.644.166.983.251.443.11.418.104.598.153.087.023.215.054.285.068.07.014.158.036.195.049.074.026.51.13.527.126.006-.001.031-.088.056-.19.025-.104.081-.327.124-.495.044-.17.077-.315.074-.325a1.611 1.611 0 00-.298-.094zm-2.292.76c-.154-.042-.292-.07-.305-.062-.022.012-.06.141-.175.6-.038.154-.072.28-.22.832-.043.155-.092.342-.11.416-.066.259-.129.49-.187.69a1.95 1.95 0 00-.055.213c.002.006-.022.096-.053.2a1.937 1.937 0 00-.053.2c.002.004-.024.101-.058.215-.034.114-.06.212-.057.218.002.006-.022.095-.053.198a1.965 1.965 0 00-.06.223.923.923 0 01-.037.144c-.019.058-.048.162-.063.23l2.082.58c.036-.136.276-.974.308-1.086a2.35 2.35 0 00.055-.213 1.79 1.79 0 01.045-.18c.118-.422.178-.647.175-.655a2.264 2.264 0 01.059-.215c.034-.113.06-.21.058-.215a2.804 2.804 0 01.062-.246c.135-.483.161-.581.158-.59a2.532 2.532 0 01.058-.215c.034-.114.06-.212.058-.217a1.113 1.113 0 01.04-.153c.054-.181.115-.43.105-.433a59.107 59.107 0 00-.739-.201l-1.038-.278z" fill="#222"/><path d="M.728 18.52v4.168a2.772 2.772 0 002.778 2.778h19.447a2.772 2.772 0 002.778-2.778v-4.167z" fill="#222"/><g style="line-height:4.23333311px;-inkscape-font-specification:'Montserrat Medium';text-align:center" aria-label="AUTHORITY" font-weight="500" font-size="4.233" font-family="Montserrat" letter-spacing="-.265" text-anchor="middle" fill="#eee" stroke-width=".25" stroke-linejoin="round" stroke-opacity=".909"><path style="-inkscape-font-specification:'Montserrat Medium'" d="M4.102 23.289l-.263-.627H2.392l-.263.627h-.588l1.3-2.964h.588L4.71 23.29zm-1.507-1.114h1.041l-.516-1.244zM5.232 22.07q0 .35.2.55.198.199.533.199.334 0 .525-.2.194-.198.194-.55v-1.744h.568v1.744q0 .386-.157.674-.157.283-.449.436-.288.152-.681.152-.398 0-.695-.152-.292-.153-.448-.436-.157-.288-.157-.674v-1.744h.567zM7.325 20.325h2.417v.504H8.82v2.46h-.571v-2.46h-.923zM9.88 20.325h.567v1.266h1.477v-1.266h.567v2.964h-.567v-1.203h-1.477v1.203h-.568zM14.301 20.287q.44 0 .8.2.365.198.572.545.207.347.207.77 0 .424-.207.775-.207.348-.571.55-.36.204-.8.204-.44 0-.805-.203-.36-.203-.567-.55-.208-.352-.208-.775 0-.424.208-.77.207-.348.567-.547.364-.199.804-.199zm.009.508q-.271 0-.504.136-.233.13-.368.364-.136.228-.136.508t.136.512q.14.233.368.368.233.136.504.136.267 0 .495-.136.229-.135.36-.368.136-.233.136-.512 0-.28-.136-.508-.131-.233-.36-.364-.228-.136-.495-.136zM17.968 23.289l-.512-.877q-.034.005-.106.005h-.669v.872h-.567v-2.964h1.236q.576 0 .889.267.313.267.313.753 0 .348-.152.593-.148.246-.436.368l.652.983zm-1.287-1.372h.669q.322 0 .49-.14.17-.14.17-.415 0-.27-.17-.406-.168-.135-.49-.135h-.669zM18.908 20.325h.568v2.964h-.568zM19.612 20.325h2.417v.504h-.923v2.46h-.571v-2.46h-.923z"/><path style="-inkscape-font-specification:'Montserrat Medium'" d="M24.55 20.325l-1.08 1.994v.97h-.567v-.949l-1.105-2.015h.575l.81 1.393.795-1.393z"/></g></g><g transform="matrix(1.6 0 0 1.6 -64.359 103.524)" stroke-width=".5"><rect height="26.458" width="26.458" rx="1.984" ry="1.984" fill="#222"/><rect width="23.813" height="23.813" x="1.323" y="1.323" rx="1.323" ry="1.323" fill="#d3d3d3"/><path d="M9.195 3.115c1.057.001 1.623.29 2.252 1.149 1.303 1.78 1.663 2.023 2.992 2.023 1.131 0 2-.247 4.532-1.29.292-.12.743 2.338.989 5.385l.144 1.791-.744.327c-2.031.89-3.801 1.224-4.827.91-.6-.184-1.07-.66-1.906-1.926-.716-1.085-1.607-1.42-3.097-1.166-.96.164-2.793.777-2.822.944-.01.062.432 2.123.983 4.58l.913 4.069a9.447 11.252 47.5 01-1.241-.123c-.123-.833-.591-3.045-1.574-7.461-.984-4.422-1.71-7.938-1.67-8.077.116-.396.416-.503.708-.253l.248.213.727-.289c1.287-.51 2.541-.807 3.393-.806zM5.374 5.057a.04.04 0 00-.027.01c-.027.024.218 1.239.545 2.7.398 1.778.628 2.598.694 2.479.055-.098.148-.58.207-1.07.132-1.098-.01-2.064-.43-2.908-.267-.538-.826-1.213-.99-1.21z" fill="#222"/><path d="M.728 18.52v4.168a2.772 2.772 0 002.778 2.778h19.447a2.772 2.772 0 002.778-2.778v-4.167z" fill="#222"/><g aria-label="NATION" style="line-height:2.11666656px;-inkscape-font-specification:'Montserrat Medium';text-align:center" font-weight="500" font-size="4.233" font-family="Montserrat" letter-spacing="0" text-anchor="middle" fill="#eee" stroke-width="2.117" stroke-linejoin="round" paint-order="stroke fill markers"><path d="M7.322 20.325h.55v2.964h-.537l-1.524-2.04v2.04h-.555v-2.964h.538l1.528 2.045zM10.79 23.289l-.263-.627H9.079l-.263.627h-.588l1.3-2.964h.588L11.4 23.29zm-1.508-1.114h1.042l-.517-1.244zM11.127 20.325h2.417v.504h-.923v2.46h-.571v-2.46h-.923zM13.946 20.325h.567v2.964h-.567zM16.59 20.287q.44 0 .8.2.364.198.572.545.207.347.207.77 0 .424-.207.775-.208.348-.572.55-.36.204-.8.204-.44 0-.804-.203-.36-.203-.567-.55-.208-.352-.208-.775 0-.424.208-.77.207-.348.567-.547.364-.199.804-.199zm.009.508q-.271 0-.504.136-.233.13-.368.364-.136.228-.136.508t.136.512q.14.233.368.368.233.136.504.136.266 0 .495-.136.229-.135.36-.368.135-.233.135-.512 0-.28-.135-.508-.131-.233-.36-.364-.229-.136-.495-.136zM20.733 20.325h.55v2.964h-.537l-1.524-2.04v2.04h-.555v-2.964h.538l1.528 2.045z" style="-inkscape-font-specification:'Montserrat Medium';text-align:center"/></g></g><g transform="matrix(2 0 0 2 -69.359 153.587)" stroke-width=".5"><rect ry="1.984" rx="1.984" width="26.458" height="26.458" fill="#222"/><rect ry="1.323" rx="1.323" y="1.323" x="1.323" height="23.813" width="23.813" fill="#03a9f4"/><path d="M11.614 2.553c-.29 0-.582.008-.749.023-1.91.177-3.58.855-5.05 2.055-.317.258-.94.88-1.208 1.205-1.185 1.439-1.87 3.096-2.06 4.978a11.566 11.566 0 00-.01 1.586c.18 1.941.88 3.639 2.113 5.12.102.122.336.37.532.566.488.489.866.8 1.425 1.172a9.042 9.042 0 004.287 1.47l.36.026c.21.015.896-.007 1.2-.035a8.964 8.964 0 003.224-.918 9.1 9.1 0 005.037-8.166 8.833 8.833 0 00-.47-2.889 9.11 9.11 0 00-1.667-2.96 12.03 12.03 0 00-1.097-1.099c-1.492-1.237-3.175-1.931-5.118-2.11a9.603 9.603 0 00-.749-.024zM9.488 3.984a11.913 11.913 0 00-1.334 1.782 13.77 13.77 0 00-.699 1.355l-.027-.01A12.604 12.604 0 016.379 6.6a14.414 14.414 0 01-.62-.369c.02-.022.036-.042.061-.068a8.04 8.04 0 012.153-1.613c.447-.232 1.013-.424 1.515-.565zm4.246.002c1.222.338 2.425.977 3.325 1.832.151.144.278.27.365.362l.045.048-.152.098c-.142.088-.313.19-.434.258a14.036 14.036 0 01-1.028.502l-.082.035-.023-.055a18.773 18.773 0 00-.63-1.228 12.105 12.105 0 00-1.386-1.852zm-2.683.01c0 .103.003.212.004.367.002.393.004.934.004 1.53v2.039h-.032c-.425-.007-1.255-.122-1.838-.256-.209-.048-.406-.1-.55-.143-.051-.015-.085-.027-.12-.039l.088-.191c.076-.16.172-.35.246-.489a10.304 10.304 0 012.08-2.71c.045-.043.079-.072.118-.108zm1.127 0l.072.065c.137.127.295.277.385.37a10.382 10.382 0 011.978 2.86c.038.08.072.15.096.205l-.14.043c-.652.184-1.388.319-2.075.377-.114.01-.266.017-.324.018V5.89c0-.67.003-1.212.006-1.584 0-.136 0-.222.002-.311zm-7.123 3.12c.028.016.054.032.088.054.559.362 1.253.727 1.855.976.035.015.043.02.063.03l-.05.16a11.862 11.862 0 00-.486 2.752l-1.443.004-1.43.004.004-.06c.014-.233.054-.539.111-.852.137-.743.406-1.52.753-2.188.154-.298.398-.688.535-.88zm13.113.005c.56.828.957 1.666 1.186 2.58.115.462.215 1.132.218 1.395H18.15c-.426 0-.814 0-1.097-.002a36.356 36.356 0 01-.336-.004h-.018v-.002c0-.405-.112-1.237-.246-1.852a13.438 13.438 0 00-.285-1.06c.021-.01.039-.02.064-.03a12.203 12.203 0 001.854-.976l.082-.049zM15.152 8.41c.034-.011.043.008.11.218.227.722.413 1.76.436 2.432l.005.153-1.82.004c-1.447.004-1.822 0-1.829-.018a37.966 37.966 0 01-.004-1.137l.005-1.114.18-.013c.9-.065 1.543-.163 2.233-.337.242-.061.555-.148.684-.188zm-7.025.135c.86.265 1.799.44 2.85.514l.072.005v2.024l-1.693.004c-.568.001-1.024.002-1.338 0-.157-.001-.278-.004-.36-.006H7.65l.01-.149a10.905 10.905 0 01.426-2.271c.023-.073.03-.093.04-.121zm-4.475 3.664H6.518l.029.379c.059.813.218 1.66.46 2.459l.03.094-.127.054c-.567.24-1.331.648-1.795.96l-.062.04-.014-.017a5.05 5.05 0 01-.176-.266 9.63 9.63 0 01-.398-.703c-.438-.873-.756-2.03-.809-2.94l-.004-.06zm3.992 0l1.698.004 1.707.006v2.021l-.072.006c-1.034.072-1.82.207-2.72.467l-.087.025-.072.02a10.244 10.244 0 01-.45-2.47l-.004-.08zm7.94 0l-.004.078c-.046.785-.189 1.598-.414 2.363-.015.052-.024.085-.033.112l-.012-.004c-.823-.262-1.824-.441-2.86-.512l-.081-.006V12.217l1.707-.004 1.697-.004zm1.125 0h2.865c-.001.05-.01.184-.023.3a7.975 7.975 0 01-1.29 3.563c-.031.049-.058.087-.083.123l-.033-.021a12.61 12.61 0 00-1.827-.979l-.126-.054.029-.094c.249-.819.428-1.795.47-2.578.006-.096.013-.208.018-.26zm-5.65 3.164V17.565c0 .558-.003 1.08-.004 1.453l-.002.384a10.292 10.292 0 01-2.498-3.43c-.028-.06-.052-.11-.07-.154.015-.005.022-.01.042-.015a10.965 10.965 0 012.41-.424l.122-.006zm1.11 0l.118.006a10.574 10.574 0 012.098.338c.137.035.258.067.341.093l.02.006a10.568 10.568 0 01-2.568 3.582c0-.023-.002-.021-.002-.05-.004-.286-.006-.841-.006-1.893v-2.082zm-4.747.826c.013.027.023.045.05.11a11.69 11.69 0 001.962 3.023 8.01 8.01 0 01-3.076-1.67c-.06-.052-.238-.226-.395-.383-.077-.076-.15-.15-.203-.205a6.09 6.09 0 01.228-.142c.2-.12.458-.265.678-.38.125-.064.312-.155.479-.232.132-.061.219-.097.277-.12zm8.385 0c.101.039.285.12.515.235.262.13.55.281.746.396.198.115.33.194.403.244a11.98 11.98 0 01-.514.506c-.869.793-2 1.384-3.135 1.71.781-.889 1.46-1.9 1.934-2.981.028-.065.037-.083.05-.11z" fill="#222"/><path d="M.728 18.52v4.168a2.772 2.772 0 002.778 2.778h19.447a2.772 2.772 0 002.778-2.778v-4.167z" fill="#222"/><g aria-label="WORLD" style="line-height:2.11666656px;-inkscape-font-specification:'Montserrat Medium';text-align:center" font-weight="500" font-size="4.233" font-family="Montserrat" text-anchor="middle" fill="#eee" stroke-width="2.117" stroke-linejoin="round" paint-order="stroke fill markers"><path d="M8.89 20.325h.588L8.475 23.29h-.589L7.21 21.04l-.69 2.248h-.58l-1-2.964h.61l.699 2.35.694-2.35h.56l.698 2.358zM11.14 20.287q.44 0 .8.2.364.198.571.545.208.347.208.77 0 .424-.208.775-.207.348-.571.55-.36.204-.8.204-.44 0-.805-.203-.36-.203-.567-.55-.207-.352-.207-.775 0-.424.207-.77.207-.348.567-.547.364-.199.805-.199zm.008.508q-.27 0-.504.136-.232.13-.368.364-.135.228-.135.508t.135.512q.14.233.368.368.233.136.504.136.267 0 .495-.136.229-.135.36-.368.136-.233.136-.512 0-.28-.136-.508-.131-.233-.36-.364-.228-.136-.495-.136zM15.07 23.289l-.512-.877q-.033.005-.105.005h-.67v.872h-.567v-2.964h1.237q.575 0 .889.267.313.267.313.754 0 .347-.153.592-.148.246-.436.368l.652.983zm-1.286-1.372h.669q.321 0 .49-.14.17-.14.17-.415 0-.27-.17-.406-.169-.135-.49-.135h-.67zM16.276 20.325h.567v2.451h1.278v.513h-1.845zM19.798 20.325q.444 0 .796.19.351.187.55.526.2.338.2.766t-.204.766q-.2.335-.555.525-.355.19-.808.19h-1.211v-2.963zm.013 2.464q.27 0 .486-.123.22-.127.343-.347.123-.224.123-.508 0-.283-.127-.508-.127-.228-.351-.351-.22-.127-.496-.127h-.656v1.964z" style="-inkscape-font-specification:'Montserrat Medium';text-align:center"/></g></g><g transform="matrix(1.6 0 0 1.6 -119.421 159.087)" stroke-width=".5"><rect ry="1.984" rx="1.984" width="26.458" height="26.458" fill="#222"/><rect ry="1.323" rx="1.323" y="1.323" x="1.323" height="23.813" width="23.813" fill="#d3d3d3"/><path d="M.728 18.52v4.168a2.772 2.772 0 002.778 2.778h19.447a2.772 2.772 0 002.778-2.778v-4.167z" fill="#222"/><path d="M9.402 18.52l-.018-.806-.613-.101c-.657-.11-1.53-.363-2.002-.582-.775-.36-1.573-1.094-1.85-1.703-.146-.32-.176-.476-.175-.89.001-.597.15-.937.554-1.27.418-.344.896-.507 1.503-.513.594-.005.968.116 1.36.439 1.278 1.052.584 2.796-1.181 2.968l-.414.04.18.172c.343.326 1.114.627 2.076.81.664.125.595.426.595-2.558v-2.621l-.34-.142-.9-.376C6.732 10.78 5.72 9.894 5.344 8.899c-.295-.779-.207-2.047.2-2.865.567-1.14 1.882-2.008 3.502-2.312l.372-.07V2.13h.516V3.602h1.292V2.129h.58v.766c0 .421.023.766.05.766.214.002.952.148 1.352.267 1.647.49 2.623 1.357 2.716 2.412.04.467-.09.824-.425 1.162-.38.384-.662.487-1.335.487-.532 0-.611-.015-.935-.182a1.63 1.63 0 01-.845-1.048c-.069-.28-.062-.363.058-.722.142-.428.28-.585.765-.872.202-.12.36-.162.63-.17.197-.005.358-.029.359-.053.002-.154-1.026-.568-1.711-.688-.213-.037-.453-.08-.534-.096l-.146-.029.017 2.42.017 2.42.634.227c1.37.491 2.561 1.115 3.2 1.675.884.776 1.161 1.294 1.216 2.272.061 1.073-.157 1.861-.735 2.663-.522.723-1.273 1.2-2.433 1.547a9.29 9.29 0 01-1.307.28l-.607.069v1.625h-.581v-1.59H9.933v1.59H9.42zm1.58-1.312l.243-.001v-4.7l-.582-.212c-.32-.116-.61-.212-.646-.212-.041 0-.064.904-.064 2.559V17.2l.275.024c.15.013.332.015.403.004.071-.01.238-.02.372-.02zm1.532-.34c.486-.209 1.051-.71 1.232-1.093.2-.424.203-1.13.006-1.539-.274-.565-.727-.944-1.621-1.357l-.325-.15V17.102l.175-.04c.097-.022.337-.11.533-.194zm-1.29-10.44V4.074h-.403c-.222.001-.513.018-.646.038l-.243.037.016 2.122.017 2.123.162.043c.089.024.365.111.613.194.249.083.46.151.469.153.008 0 .016-1.058.016-2.354zm-1.807-.205c0-2.178.04-2.053-.554-1.742-.484.253-.95.746-1.09 1.153-.24.692-.044 1.309.59 1.864.237.206.906.63 1.005.636.027.001.049-.859.049-1.911z" fill="#222"/><g aria-label="MARKETS" style="line-height:2.11666656px;-inkscape-font-specification:'Montserrat Medium';text-align:center" font-weight="500" font-size="4.233" font-family="Montserrat" letter-spacing="0" text-anchor="middle" fill="#eee" stroke-width="2.117" stroke-linejoin="round" paint-order="stroke fill markers"><path d="M2.843 20.51h.648l.982 1.909.974-1.91h.648v2.964h-.521v-2.125l-.923 1.82h-.364l-.927-1.82v2.125h-.517zM9.013 23.473l-.262-.626H7.303l-.263.626h-.588l1.3-2.963h.588l1.283 2.963zM7.506 22.36h1.042l-.517-1.245zM11.833 23.473l-.512-.876q-.034.004-.106.004h-.669v.872H9.98V20.51h1.236q.576 0 .889.266.313.267.313.754 0 .347-.152.593-.148.245-.436.368l.652.982zm-1.287-1.372h.669q.322 0 .491-.14.17-.139.17-.414 0-.271-.17-.407-.17-.135-.491-.135h-.669zM15.684 23.473h-.682l-.931-1.27-.466.512v.758h-.567V20.51h.567v1.477l1.338-1.477h.669l-1.139 1.253zM16.114 20.51h2.172v.495H16.68v.732h1.44v.496h-1.44v.745h1.655v.495h-2.222zM18.578 20.51h2.418v.503h-.923v2.46H19.5v-2.46h-.923zM23.26 21.272q-.229-.14-.47-.216-.237-.076-.42-.076-.202 0-.32.076-.12.076-.12.211 0 .123.081.208.085.08.207.135.127.051.343.115.3.089.491.177.195.09.33.263.136.174.136.457 0 .271-.148.474-.144.2-.402.305-.254.106-.584.106-.348 0-.678-.127-.33-.131-.575-.347l.237-.483q.224.208.503.326.28.119.521.119.237 0 .373-.09.135-.092.135-.249 0-.127-.085-.207-.08-.085-.207-.136-.127-.05-.347-.114-.3-.09-.491-.174-.19-.084-.326-.254-.136-.173-.136-.453 0-.258.136-.448.14-.195.39-.301.253-.106.583-.106.288 0 .568.085.283.084.503.228z" style="-inkscape-font-specification:'Montserrat Medium';text-align:center"/></g></g><g transform="matrix(1.6 0 0 1.6 46.766 103.524)" stroke-width=".5"><rect height="26.458" width="26.458" rx="1.984" ry="1.984" fill="#222"/><rect width="23.813" height="23.813" x="1.323" y="1.323" rx="1.323" ry="1.323" fill="#d3d3d3"/><path d="M2.974 20.165l.565-.914.518-.838V5.783l-.574-.923c-.316-.508-.559-.939-.54-.958.018-.018 1.812.01 3.987.062 3.14.075 4.75.075 7.831 0 2.133-.05 3.896-.076 3.917-.054.022.021-.222.465-.541.985l-.58.946V18.378l.571.92c.315.505.572.925.572.931 0 .007-3.548.012-7.886.012-5.238 0-7.87-.026-7.84-.076zm4.133-1.66c0-.01-.087-.273-.193-.585-.254-.748-.347-1.44-.263-1.955.146-.9.54-1.37 1.94-2.316 1.226-.828 1.339-.954 1.339-1.492 0-.567-.19-.799-1.258-1.537-1.49-1.03-1.902-1.516-2.02-2.384-.071-.524.026-1.44.218-2.058l.145-.466h-2.12v6.33c0 5.008.02 6.332.096 6.34.097.01 1.52.107 1.907.13.115.007.21.004.21-.006zm9.21-.103l.4-.04V5.711h-1.075c-.936 0-1.07.015-1.032.117.288.749.391 1.273.391 1.98 0 .652-.025.811-.177 1.095-.285.534-.756.984-1.652 1.577-1.18.781-1.489 1.132-1.488 1.69 0 .466.22.716 1.23 1.4 1.609 1.088 2.05 1.645 2.107 2.666.033.576-.106 1.17-.468 2l-.124.284.744-.04c.409-.021.924-.057 1.144-.08zm-2.012-1.65c.154-.574-.073-1.178-.626-1.667-.325-.289-2.238-1.594-2.335-1.594-.079 0-.039.726.068 1.23.182.859.654 1.571 1.252 1.891.255.137.942.3 1.28.306.264.004.322-.022.361-.166zm-5.745-.027c.766-.228 1.296-.728 1.557-1.47.137-.387.32-1.663.25-1.734-.063-.062-1.287.71-1.951 1.23-.798.624-1.134 1.212-1.037 1.81.047.284.05.286.408.286.198 0 .546-.055.773-.122zm4.175-7.388c.898-.218 1.374-.577 1.548-1.168.116-.396.018-1.033-.284-1.849l-.197-.532h-5.99l-.208.553c-.264.702-.348 1.74-.17 2.082.292.558.938.892 1.986 1.024.766.097 2.734.032 3.315-.11z" fill="#222"/><path d="M.728 18.52v4.168a2.772 2.772 0 002.778 2.778h19.447a2.772 2.772 0 002.778-2.778v-4.167z" fill="#222"/><g style="line-height:4.23333311px;-inkscape-font-specification:'Montserrat Medium';text-align:center" aria-label="TRADITION" font-weight="500" font-size="4.233" font-family="Montserrat" letter-spacing="-.265" text-anchor="middle" fill="#eee" stroke-width=".25" stroke-linejoin="round" stroke-opacity=".909"><path style="-inkscape-font-specification:'Montserrat Medium'" d="M2.224 20.325H4.64v.504h-.923v2.46h-.572v-2.46h-.922zM6.632 23.289l-.512-.877q-.034.005-.106.005h-.669v.872h-.567v-2.964h1.236q.576 0 .89.267.312.267.312.753 0 .348-.152.593-.148.246-.436.368l.652.983zm-1.287-1.372h.67q.32 0 .49-.14.17-.14.17-.415 0-.27-.17-.406-.17-.135-.49-.135h-.67z"/><path style="-inkscape-font-specification:'Montserrat Medium'" d="M9.766 23.289l-.263-.627H8.055l-.262.627h-.589l1.3-2.964h.588l1.283 2.964zm-1.508-1.114H9.3l-.517-1.244zM11.698 20.325q.445 0 .796.19.352.187.55.526.2.338.2.766t-.204.766q-.199.335-.554.525-.356.19-.809.19h-1.21v-2.963zm.013 2.464q.271 0 .487-.123.22-.127.343-.347.123-.224.123-.508 0-.283-.127-.508-.127-.228-.352-.351-.22-.127-.495-.127h-.656v1.964zM13.476 20.325h.567v2.964h-.567zM14.18 20.325h2.417v.504h-.923v2.46h-.572v-2.46h-.923zM16.734 20.325h.567v2.964h-.567zM19.114 20.287q.44 0 .8.2.364.198.571.545.208.347.208.77 0 .424-.208.775-.207.348-.571.55-.36.204-.8.204-.44 0-.805-.203-.36-.203-.567-.55-.207-.352-.207-.775 0-.424.207-.77.207-.348.567-.547.364-.199.805-.199zm.008.508q-.27 0-.504.136-.233.13-.368.364-.135.228-.135.508t.135.512q.14.233.368.368.233.136.504.136.267 0 .495-.136.229-.135.36-.368.136-.233.136-.512 0-.28-.136-.508-.131-.233-.36-.364-.228-.136-.495-.136zM22.992 20.325h.55v2.964h-.538l-1.524-2.04v2.04h-.554v-2.964h.537l1.529 2.045z"/></g></g><g transform="matrix(2 0 0 2 41.766 153.587)" stroke-width=".5"><rect ry="1.984" rx="1.984" width="26.458" height="26.458" fill="#222"/><rect ry="1.323" rx="1.323" y="1.323" x="1.323" height="23.813" width="23.813" fill="#9c27b0"/><path style="line-height:4.23333311px;-inkscape-font-specification:'Montserrat Bold';text-align:center" d="M10.805 3.447a.159.159 0 00-.137.114.159.159 0 000 .003c-.527.074-1.026.401-1.48 1.127-.476.775-.836 1.889-1.11 3.276-1.297-.449-2.425-.7-3.337-.685-.96.017-1.626.262-1.926.788a.159.159 0 000 .002 1.3 1.3 0 00-.155.635c0 .42.156.891.448 1.418.433.8 1.208 1.656 2.242 2.565-1.05.924-1.835 1.787-2.268 2.58a.159.159 0 000 .002c-.275.525-.422.986-.422 1.39 0 .233.052.447.155.635a.159.159 0 000 .002c.291.517.943.766 1.886.8a.159.159 0 00.003 0c.913.023 2.053-.234 3.371-.697.275 1.348.624 2.453 1.087 3.236a.159.159 0 000 .002c.5.825 1.05 1.282 1.659 1.282.601 0 1.143-.457 1.635-1.282a.159.159 0 000-.002c.464-.784.816-1.888 1.09-3.239 1.33.458 2.473.711 3.381.687.942-.024 1.594-.269 1.886-.784v-.003c.113-.189.169-.41.169-.652 0-.404-.146-.86-.422-1.377a.159.159 0 000-.002c-.443-.798-1.234-1.658-2.294-2.58 1.036-.91 1.823-1.768 2.27-2.575h-.002c.292-.518.448-.98.448-1.394 0-.242-.056-.463-.169-.652-.3-.524-.97-.768-1.935-.785-.91-.016-2.04.236-3.34.682-.274-1.385-.63-2.498-1.107-3.273-.492-.8-1.025-1.244-1.61-1.244a.159.159 0 00-.016 0zm.016.937c.15 0 .308.068.483.232s.36.424.545.78c.347.655.624 1.637.84 2.868-.626.24-1.248.512-1.866.818a24.242 24.242 0 00-1.893-.818c.215-1.23.493-2.213.839-2.868.185-.355.372-.616.55-.78.18-.164.342-.232.502-.232zM4.764 8.13c.09-.002.187 0 .289.005.747.038 1.718.287 2.856.705-.1.666-.174 1.345-.22 2.037-.58.391-1.13.795-1.65 1.213-.938-.776-1.643-1.493-2.05-2.127a.159.159 0 000-.003c-.22-.339-.355-.63-.408-.869-.053-.238-.03-.415.056-.558a.159.159 0 00.003-.002c.078-.137.216-.243.45-.314.175-.053.4-.084.674-.087zm12.103 0c.273.003.5.034.676.087.235.07.377.177.46.314.081.142.106.319.051.558-.054.238-.192.532-.413.871a.159.159 0 000 .003c-.407.641-1.116 1.363-2.061 2.14a24.558 24.558 0 00-1.65-1.217 22.409 22.409 0 00-.232-2.046c1.138-.417 2.114-.667 2.878-.705h.002c.101-.005.198-.006.29-.005zm-4.036 1.043c.046.354.081.715.113 1.08-.176-.108-.352-.216-.527-.328a.159.159 0 00-.007-.004c-.195-.109-.382-.208-.57-.31.334-.153.665-.3.991-.438zm-4.041.01c.326.133.657.279.99.43-.185.102-.37.202-.559.31a.159.159 0 00-.005.002c-.183.113-.362.221-.541.33.031-.364.069-.723.115-1.073zm2.006.937c.38.198.76.4 1.14.613.372.213.734.435 1.092.661a25.84 25.84 0 010 2.582c-.35.226-.713.446-1.092.658a.159.159 0 00-.002.003c-.372.22-.744.425-1.115.623a18.958 18.958 0 01-1.12-.623.159.159 0 00-.007-.003 18.01 18.01 0 01-1.102-.658 38.4 38.4 0 010-2.582c.358-.226.725-.448 1.104-.66a.159.159 0 00.002 0c.364-.212.73-.417 1.1-.614zm.025 1.485c-.189 0-.37.05-.539.143a.949.949 0 00-.403.391 1.111 1.111 0 000 1.092.159.159 0 00.003.002 1.101 1.101 0 00.94.53c.181 0 .36-.05.527-.143a1.05 1.05 0 00.4-.387.159.159 0 00.003-.002 1.11 1.11 0 000-1.092.949.949 0 00-.403-.39 1.083 1.083 0 00-.528-.144zm-3.184.44c-.004.215-.007.427-.007.645 0 .212.003.423.007.635-.303-.209-.6-.42-.88-.635.28-.22.577-.435.88-.644zm6.347 0c.305.21.604.424.89.645-.286.216-.585.426-.89.635.007-.212.017-.424.017-.635 0-.218-.01-.43-.017-.644zM6.03 13.279c.527.419 1.078.824 1.659 1.216.046.69.12 1.369.22 2.034-1.161.425-2.145.675-2.892.705-.398.016-.714-.015-.944-.087-.23-.07-.367-.175-.445-.309-.077-.133-.1-.306-.047-.541.053-.236.183-.528.396-.867a.159.159 0 00.003-.002c.383-.632 1.09-1.357 2.05-2.149zm9.559 0c.96.792 1.673 1.518 2.064 2.15a.159.159 0 000 .003c.217.34.35.63.403.865.053.235.03.405-.051.539a.159.159 0 000 .002c-.078.134-.218.238-.448.31-.23.07-.546.102-.944.086-.747-.03-1.735-.28-2.903-.705.1-.665.174-1.343.22-2.034.58-.392 1.131-.797 1.659-1.216zm-6.914 1.834c.18.113.356.227.546.336.184.108.372.208.56.31-.335.152-.667.298-.994.437-.046-.355-.08-.717-.112-1.083zm4.269.003a25.21 25.21 0 01-.113 1.08 37.778 37.778 0 01-.99-.438c.187-.101.374-.2.569-.31a.159.159 0 00.002-.002c.182-.107.356-.22.532-.33zm-2.148 1.172c.628.308 1.26.58 1.895.829-.208 1.202-.482 2.172-.83 2.844a.159.159 0 000 .003c-.181.359-.367.621-.543.787-.177.166-.337.234-.497.234-.165 0-.33-.07-.51-.236-.181-.166-.368-.429-.554-.788-.347-.672-.622-1.642-.83-2.844a24.304 24.304 0 001.869-.83z" font-weight="700" font-size="4.233" font-family="Montserrat" text-anchor="middle" fill="#222"/><path d="M.728 18.52v4.168a2.772 2.772 0 002.778 2.778h19.447a2.772 2.772 0 002.778-2.778v-4.167z" fill="#222"/><g style="line-height:4.23333311px;-inkscape-font-specification:'Montserrat Medium';text-align:center" aria-label="PROGRESS" font-weight="500" font-size="4.233" font-family="Montserrat" letter-spacing="-.265" text-anchor="middle" fill="#eee" stroke-width=".25" stroke-linejoin="round" stroke-opacity=".909"><path style="-inkscape-font-specification:'Montserrat Medium'" d="M3.76 20.325q.56 0 .864.267.31.267.31.754 0 .508-.31.791-.305.28-.863.28h-.648v.872h-.567v-2.964zm-.03 1.592q.323 0 .492-.14.174-.14.174-.415 0-.27-.174-.406-.17-.135-.491-.135h-.618v1.096zM6.996 23.289l-.512-.877q-.034.005-.106.005h-.669v.872h-.567v-2.964h1.236q.576 0 .889.267.313.267.313.753 0 .348-.152.593-.148.246-.436.368l.652.983zm-1.287-1.372h.669q.322 0 .491-.14.17-.14.17-.415 0-.27-.17-.406-.17-.135-.491-.135h-.669zM9.283 20.287q.44 0 .8.2.364.198.571.545.208.347.208.77 0 .424-.208.775-.207.348-.571.55-.36.204-.8.204-.44 0-.805-.203-.36-.203-.567-.55-.207-.352-.207-.775 0-.424.207-.77.207-.348.567-.547.364-.199.805-.199zm.008.508q-.27 0-.504.136-.232.13-.368.364-.135.228-.135.508t.135.512q.14.233.368.368.233.136.504.136.267 0 .495-.136.229-.135.36-.368.136-.233.136-.512 0-.28-.136-.508-.131-.233-.36-.364-.228-.136-.495-.136z"/><path style="-inkscape-font-specification:'Montserrat Medium'" d="M13.007 21.815h.495v1.126q-.233.174-.55.284-.318.106-.623.106-.436 0-.796-.203-.355-.203-.563-.55-.207-.352-.207-.775 0-.424.212-.767.211-.347.575-.546.369-.203.813-.203.318 0 .627.114.309.115.533.314l-.322.419q-.17-.161-.393-.25-.22-.089-.445-.089-.28 0-.516.136-.233.13-.369.364-.135.233-.135.508 0 .28.135.512.14.233.373.368.233.136.516.136.153 0 .318-.047.17-.05.322-.14zM15.744 23.289l-.512-.877q-.034.005-.106.005h-.67v.872h-.566v-2.964h1.236q.575 0 .889.267.313.267.313.753 0 .348-.152.593-.149.246-.436.368l.651.983zm-1.287-1.372h.669q.321 0 .49-.14.17-.14.17-.415 0-.27-.17-.406-.169-.135-.49-.135h-.67zM16.684 20.325h2.172v.496H17.25v.732h1.44v.495h-1.44v.745h1.656v.496h-2.223zM21.077 21.087q-.229-.14-.47-.216-.237-.076-.419-.076-.203 0-.322.076-.118.077-.118.212 0 .123.08.207.085.08.208.136.127.05.342.114.301.09.492.178.194.089.33.263.135.173.135.457 0 .27-.148.474-.144.199-.402.305-.254.105-.584.105-.347 0-.678-.127-.33-.13-.575-.347l.237-.482q.224.207.503.326.28.118.521.118.237 0 .373-.089.135-.093.135-.25 0-.126-.085-.207-.08-.085-.207-.135-.127-.051-.347-.115-.3-.089-.491-.173-.19-.085-.326-.254-.136-.174-.136-.453 0-.258.136-.449.14-.195.39-.3.253-.106.584-.106.287 0 .567.084.283.085.504.229zM23.475 21.087q-.229-.14-.47-.216-.237-.076-.42-.076-.202 0-.321.076-.119.077-.119.212 0 .123.08.207.086.08.208.136.127.05.343.114.3.09.491.178.195.089.33.263.136.173.136.457 0 .27-.148.474-.144.199-.402.305-.254.105-.585.105-.347 0-.677-.127-.33-.13-.576-.347l.237-.482q.225.207.504.326.28.118.52.118.238 0 .373-.089.136-.093.136-.25 0-.126-.085-.207-.08-.085-.207-.135-.127-.051-.347-.115-.3-.089-.491-.173-.19-.085-.326-.254-.136-.174-.136-.453 0-.258.136-.449.14-.195.39-.3.253-.106.583-.106.288 0 .568.084.283.085.503.229z"/></g></g><g aria-label="ECONOMIC" style="line-height:100%;-inkscape-font-specification:Montserrat;text-align:center" font-weight="400" font-size="4.233" font-family="Montserrat" letter-spacing="0" word-spacing="0" text-anchor="middle" fill="#222" stroke-width=".132"><path d="M-117.756 87.614v-.897h-4.233v5.926h4.335v-.897h-3.336v-1.634h2.895v-.898h-2.895v-1.6zM-113.809 86.691c-1.752 0-3.115 1.296-3.115 2.98 0 1.702 1.346 3.015 3.082 3.015.838 0 1.693-.381 2.294-.974l-.593-.66c-.448.431-1.058.702-1.65.702-1.186 0-2.117-.923-2.117-2.091 0-1.168.931-2.083 2.116-2.083.602 0 1.22.288 1.651.754l.585-.728a3.271 3.271 0 00-2.253-.915zM-108.012 86.691c-1.77 0-3.141 1.287-3.141 2.989 0 1.693 1.372 3.006 3.141 3.006 1.77 0 3.141-1.313 3.141-3.006 0-1.693-1.371-2.989-3.14-2.989zm.009.898c1.16 0 2.108.914 2.108 2.091a2.103 2.103 0 01-2.108 2.108c-1.16 0-2.134-.931-2.134-2.108s.965-2.091 2.134-2.091zM-98.66 92.643v-5.926h-.982v4.258l-3.175-4.258h-.982v5.926h.999v-4.25l3.158 4.25zM-94.435 86.691c-1.77 0-3.142 1.287-3.142 2.989 0 1.693 1.372 3.006 3.142 3.006 1.77 0 3.14-1.313 3.14-3.006 0-1.693-1.37-2.989-3.14-2.989zm.008.898c1.16 0 2.108.914 2.108 2.091a2.103 2.103 0 01-2.108 2.108c-1.16 0-2.134-.931-2.134-2.108s.966-2.091 2.134-2.091zM-83.958 92.643v-5.926h-1.176l-1.948 3.937-1.956-3.937h-1.185v5.926h.94v-4.428l1.871 3.81h.652l1.871-3.81.009 4.428zM-81.386 92.643v-5.926h-.999v5.926zM-77.197 86.691c-1.752 0-3.116 1.296-3.116 2.98 0 1.702 1.347 3.015 3.082 3.015.839 0 1.694-.381 2.295-.974l-.593-.66c-.449.431-1.058.702-1.65.702-1.186 0-2.118-.923-2.118-2.091 0-1.168.932-2.083 2.117-2.083.601 0 1.22.288 1.651.754l.584-.728a3.271 3.271 0 00-2.252-.915z"/></g><g aria-label="DIPLOMATIC" style="line-height:100%;-inkscape-font-specification:Montserrat;text-align:center" font-weight="400" font-size="4.233" font-family="Montserrat" letter-spacing="-.132" word-spacing="0" text-anchor="middle" fill="#222" stroke-width=".132"><path d="M-67.742 86.717v5.926h2.405c1.795 0 3.09-1.253 3.09-2.963 0-1.719-1.287-2.963-3.065-2.963zm1 .897h1.413c1.169 0 2.075.864 2.075 2.074 0 1.203-.88 2.058-2.032 2.058h-1.456zM-60.442 92.643v-5.926h-1v5.926zM-59.143 86.717v5.926h1v-1.786h1.363c1.49 0 2.345-.78 2.345-2.117 0-1.287-.855-2.023-2.345-2.023zm1 .897h1.32c.915 0 1.431.373 1.431 1.152 0 .804-.516 1.193-1.43 1.193h-1.322zM-52.703 91.737v-5.02h-1v5.926h3.565v-.906zM-46.802 86.691c-1.77 0-3.141 1.287-3.141 2.989 0 1.693 1.371 3.006 3.14 3.006 1.77 0 3.142-1.313 3.142-3.006 0-1.693-1.372-2.989-3.141-2.989zm.008.898c1.16 0 2.108.914 2.108 2.091a2.103 2.103 0 01-2.108 2.108c-1.16 0-2.133-.931-2.133-2.108s.965-2.091 2.133-2.091zM-36.589 92.643v-5.926h-1.177l-1.947 3.937-1.956-3.937h-1.185v5.926h.94v-4.428l1.87 3.81h.653l1.87-3.81.01 4.428zM-31.454 91.306l.568 1.337h1.067l-2.591-5.926h-1.025l-2.616 5.926h1.041l.568-1.337zm-.38-.89h-2.236l1.118-2.633zM-25.826 87.614v-.897h-4.75v.897h1.871v5.03h1v-5.03zM-24.244 92.643v-5.926h-.999v5.926zM-20.32 86.691c-1.752 0-3.115 1.296-3.115 2.98 0 1.702 1.346 3.015 3.081 3.015.839 0 1.694-.381 2.295-.974l-.593-.66c-.448.431-1.058.702-1.65.702-1.186 0-2.117-.923-2.117-2.091 0-1.168.931-2.083 2.116-2.083.601 0 1.22.288 1.651.754l.584-.728a3.271 3.271 0 00-2.252-.915z"/></g><g aria-label="CIVIL" style="line-height:100%;-inkscape-font-specification:Montserrat;text-align:center" font-weight="400" font-size="4.233" font-family="Montserrat" letter-spacing=".265" word-spacing="0" text-anchor="middle" fill="#222" stroke-width=".132"><path d="M4.047 86.691c-1.753 0-3.116 1.296-3.116 2.98 0 1.702 1.346 3.015 3.082 3.015.838 0 1.693-.381 2.294-.974l-.592-.66c-.449.431-1.059.702-1.651.702-1.186 0-2.117-.923-2.117-2.091 0-1.168.931-2.083 2.117-2.083.6 0 1.219.288 1.65.754l.585-.728a3.271 3.271 0 00-2.252-.915zM8.854 92.643v-5.926h-1v5.926zM13.589 92.643l2.396-5.926h-1.042l-1.845 4.817-1.83-4.817h-1.074l2.362 5.926zM18.313 92.643v-5.926h-1v5.926zM21.405 91.737v-5.02h-.999v5.926h3.564v-.906z"/></g><g aria-label="SOCIETAL" style="line-height:100%;-inkscape-font-specification:Montserrat;text-align:center" font-weight="400" font-size="4.233" font-family="Montserrat" letter-spacing=".132" word-spacing="0" text-anchor="middle" fill="#222" stroke-width=".132"><path d="M49.47 86.674c-1.287 0-2.16.635-2.16 1.651 0 2.109 3.201 1.372 3.201 2.693 0 .457-.415.72-1.11.72-.634 0-1.396-.305-2.006-.864l-.432.863c.61.56 1.49.94 2.422.94 1.304 0 2.235-.652 2.235-1.71.009-2.134-3.192-1.44-3.192-2.735 0-.398.381-.618.965-.618.45 0 1.093.161 1.736.55l.415-.88a3.86 3.86 0 00-2.074-.61zM55.695 86.691c-1.769 0-3.14 1.287-3.14 2.989 0 1.693 1.371 3.006 3.14 3.006 1.77 0 3.142-1.313 3.142-3.006 0-1.693-1.372-2.989-3.142-2.989zm.009.898c1.16 0 2.108.914 2.108 2.091a2.103 2.103 0 01-2.108 2.108c-1.16 0-2.134-.931-2.134-2.108s.965-2.091 2.134-2.091zM62.566 86.691c-1.753 0-3.116 1.296-3.116 2.98 0 1.702 1.346 3.015 3.082 3.015.838 0 1.693-.381 2.294-.974l-.592-.66c-.449.431-1.059.702-1.651.702-1.186 0-2.117-.923-2.117-2.091 0-1.168.931-2.083 2.117-2.083.6 0 1.219.288 1.65.754l.585-.728a3.271 3.271 0 00-2.252-.915zM67.108 92.643v-5.926h-.999v5.926zM73.17 87.614v-.897h-4.233v5.926h4.335v-.897h-3.336v-1.634h2.896v-.898h-2.896v-1.6zM78.805 87.614v-.897h-4.75v.897h1.871v5.03h1v-5.03zM83.165 91.306l.568 1.337h1.066l-2.59-5.926h-1.025l-2.616 5.926h1.041l.568-1.337zm-.38-.89h-2.236l1.118-2.633zM86.853 91.737v-5.02h-1v5.926h3.565v-.906z"/></g><text style="line-height:4.23333311px;-inkscape-font-specification:'Montserrat Medium';text-align:center" x="-355.537" y="24.113" font-weight="500" font-size="8.467" font-family="Montserrat" text-anchor="middle" fill="#eee" stroke-width="4.233" stroke-linejoin="round" paint-order="stroke fill markers"><tspan x="-355.537" y="24.113" style="-inkscape-font-specification:'Montserrat Medium';text-align:center">ORD</tspan></text><text style="line-height:4.23333311px;-inkscape-font-specification:'Montserrat Medium';text-align:center" x="-107.463" y="73.855" font-weight="500" font-size="8.467" font-family="Montserrat" letter-spacing="0" text-anchor="middle" fill="#eee" stroke-width="4.233" stroke-linejoin="round" paint-order="stroke fill markers"><tspan x="-107.463" y="73.855" style="-inkscape-font-specification:'Montserrat Medium';text-align:center">TEXT</tspan></text></g><path stroke="#222" stroke-width="2" d="M31 69v9M87 64v9M143 69v9M198 64v9"/></svg>