<svg class="thumb" width="700" height="319" viewBox="75,75,700,319" xmlns="http://www.w3.org/2000/svg" xmlns:inkscape="http://www.inkscape.org/namespaces/inkscape" xmlns:sodipodi="http://sodipodi.sourceforge.net/DTD/sodipodi-0.dtd" xmlns:xlink="http://www.w3.org/1999/xlink" xmlns:ns1="http://www.inkscape.org/namespaces/inkscape" xmlns:sketch="http://www.bohemiancoding.com/sketch/ns"><defs></defs><g><g transform="matrix(1.2617,1.2617,-0.7315,0.7315,231.9665,0.9578)"><svg width="185.988" height="162.359" viewBox="-4.609,3,185.988,162.359" class="thumb"><defs><linearGradient x1="0" y1="0.5" x2="1" y2="0.5" id="linearGradientSklihak5u1w"><stop offset="0%" stop-color="#b1b1b1"></stop><stop offset="100%" stop-color="#b1b1b1"></stop></linearGradient></defs><g></g><g><polygon points="88.385,8 0.391,160.359 176.379,160.359 " fill="url('#linearGradientSklihak5u1w')"></polygon></g></svg></g><g transform="matrix(4.3018,0,0,4.3018,91.9057,95.3277)"><svg width="64" height="64" viewBox="8,8,64,64" class="thumb"><defs><linearGradient x1="0" y1="0.5" x2="1" y2="0.5" id="linearGradientSklihak5u22"><stop offset="0%" stop-color="#000000"></stop><stop offset="100%" stop-color="#000000"></stop></linearGradient></defs><g></g><g><path d="M67,67H13V13h54V67z M15,65h50V15H15V65z" fill="url('#linearGradientSklihak5u22')"></path></g></svg></g><g transform="matrix(1.2559,1.2559,-1.0466,1.0466,121.6552,107.2843)"><svg width="186.742" height="17.218999999999994" viewBox="-5,79.525,186.742,17.218999999999994" class="thumb"><defs><linearGradient x1="0" y1="0.5" x2="1" y2="0.5" id="linearGradientSklihak5u28"><stop offset="0%" stop-color="#000000"></stop><stop offset="100%" stop-color="#000000"></stop></linearGradient></defs><g></g><g><rect y="84.525" width="176.742" height="7.219" fill="url('#linearGradientSklihak5u28')"></rect></g></svg></g><g transform="matrix(0.6252,-0.6252,1.0466,1.0466,218.9787,229.6683)"><svg width="186.742" height="17.218999999999994" viewBox="-5,79.525,186.742,17.218999999999994" class="thumb"><defs><linearGradient x1="0" y1="0.5" x2="1" y2="0.5" id="linearGradientSklihak5u2e"><stop offset="0%" stop-color="#000000"></stop><stop offset="100%" stop-color="#000000"></stop></linearGradient></defs><g></g><g><rect y="84.525" width="176.742" height="7.219" fill="url('#linearGradientSklihak5u2e')"></rect></g></svg></g><g transform="matrix(0.619,-0.619,1.0466,1.0466,221.3083,336.4187)"><svg width="186.742" height="17.218999999999994" viewBox="-5,79.525,186.742,17.218999999999994" class="thumb"><defs><linearGradient x1="0" y1="0.5" x2="1" y2="0.5" id="linearGradientSklihak5u2k"><stop offset="0%" stop-color="#000000"></stop><stop offset="100%" stop-color="#000000"></stop></linearGradient></defs><g></g><g><rect y="84.525" width="176.742" height="7.219" fill="url('#linearGradientSklihak5u2k')"></rect></g></svg></g><g transform="matrix(0.6817,0.6817,-1.0466,1.0466,124.0335,212.2825)"><svg width="186.742" height="17.218999999999994" viewBox="-5,79.525,186.742,17.218999999999994" class="thumb"><defs><linearGradient x1="0" y1="0.5" x2="1" y2="0.5" id="linearGradientSklihak5u2q"><stop offset="0%" stop-color="#000000"></stop><stop offset="100%" stop-color="#000000"></stop></linearGradient></defs><g></g><g><rect y="84.525" width="176.742" height="7.219" fill="url('#linearGradientSklihak5u2q')"></rect></g></svg></g><g transform="matrix(1.0119,0,0,1.0119,363.397,121.8959)"><svg width="468" height="186" style="overflow: visible;"><defs><linearGradient x1="0" y1="0.5" x2="1" y2="0.5" id="linearGradientSklihak5ug8"><stop offset="0%" stop-color="#000000"></stop><stop offset="100%" stop-color="#000000"></stop></linearGradient></defs><g><path d="M-184.8839453125-16.89L-184.8839453125-16.89Q-184.8839453125-19.58 -184.5739453125-21.85Q-184.2539453125-24.12 -183.6139453125-26.76L-183.6139453125-26.76L-173.8039453125-26.76L-173.8039453125-22.71Q-173.8039453125-19.34 -173.3839453125-16.75Q-172.9739453125-14.16 -172.0239453125-12.38Q-171.0739453125-10.6 -169.4839453125-9.69Q-167.8939453125-8.79 -165.6039453125-8.79L-165.6039453125-8.79Q-161.9839453125-8.79 -160.0839453125-10.77Q-158.1739453125-12.74 -158.1739453125-16.55L-158.1739453125-16.55Q-158.1739453125-18.51 -158.4439453125-20.14Q-158.71394531250002-21.78 -159.37394531249998-23.39Q-160.0339453125-25 -161.1539453125-26.78Q-162.2839453125-28.56 -164.0339453125-30.76L-164.0339453125-30.76L-177.2239453125-46.44Q-180.7339453125-50.93 -182.6439453125-55.49Q-184.5439453125-60.06 -184.5439453125-65.23L-184.5439453125-65.23Q-184.5439453125-69.38 -183.2539453125-72.85Q-181.9539453125-76.32 -179.5139453125-78.83Q-177.0739453125-81.35 -173.4839453125-82.74Q-169.8939453125-84.13 -165.3539453125-84.13L-165.3539453125-84.13Q-159.8339453125-84.13 -156.1539453125-82.57Q-152.46394531250002-81.01 -150.2639453125-78.47Q-148.0739453125-75.93 -147.1639453125-72.78Q-146.2639453125-69.63 -146.2639453125-66.46L-146.2639453125-66.46Q-146.2639453125-63.77 -146.6839453125-61.5Q-147.0939453125-59.23 -147.6339453125-56.49L-147.6339453125-56.49L-157.3939453125-56.49L-157.3939453125-60.45Q-157.3939453125-67.09 -159.3039453125-70.63Q-161.2039453125-74.17 -165.5039453125-74.17L-165.5039453125-74.17Q-169.0639453125-74.17 -170.8239453125-72.19Q-172.5839453125-70.21 -172.5839453125-66.89L-172.5839453125-66.89Q-172.5839453125-65.14 -172.3139453125-63.72Q-172.0439453125-62.3 -171.5339453125-61.11Q-171.0239453125-59.91 -170.2839453125-58.79Q-169.5539453125-57.67 -168.62394531249998-56.45L-168.62394531249998-56.45L-153.9339453125-38.67Q-149.9239453125-33.45 -147.7739453125-28.64Q-145.6339453125-23.83 -145.6339453125-18.46L-145.6339453125-18.46Q-145.6339453125-14.01 -147.0239453125-10.45Q-148.4139453125-6.88 -151.0039453125-4.39Q-153.5839453125-1.9 -157.2539453125-0.56Q-160.9139453125 0.78 -165.5039453125 0.78L-165.5039453125 0.78Q-171.1639453125 0.78 -174.9039453125-0.73Q-178.6339453125-2.25 -180.8639453125-4.74Q-183.0839453125-7.23 -183.9839453125-10.4Q-184.8839453125-13.57 -184.8839453125-16.89ZM-118.82425781250001 0.73L-118.82425781250001 0.73Q-120.9742578125 0.73 -123.1942578125 0.39Q-125.4142578125 0.05 -127.4942578125-1.03Q-129.5642578125-2.1 -131.3942578125-4.1Q-133.2242578125-6.1 -134.5942578125-9.38Q-135.9642578125-12.65 -136.7442578125-17.43Q-137.5242578125-22.22 -137.5242578125-28.86L-137.5242578125-28.86L-137.5242578125-39.4Q-137.5242578125-45.95 -136.7142578125-50.61Q-135.9142578125-55.27 -134.5242578125-58.45Q-133.1342578125-61.62 -131.2742578125-63.5Q-129.4142578125-65.38 -127.3442578125-66.38Q-125.2642578125-67.38 -123.07425781250001-67.7Q-120.8742578125-68.02 -118.7742578125-68.02L-118.7742578125-68.02Q-116.7742578125-68.02 -114.6242578125-67.72Q-112.4742578125-67.43 -110.4242578125-66.48Q-108.37425781249999-65.53 -106.5442578125-63.65Q-104.7142578125-61.77 -103.32425781250001-58.59Q-101.9242578125-55.42 -101.12425781249999-50.71Q-100.3142578125-46 -100.3142578125-39.4L-100.3142578125-39.4L-100.3142578125-28.86Q-100.3142578125-22.31 -101.1442578125-17.58Q-101.9742578125-12.84 -103.3942578125-9.57Q-104.8142578125-6.3 -106.6642578125-4.27Q-108.5242578125-2.25 -110.57425781250001-1.12Q-112.6242578125 0 -114.7442578125 0.37Q-116.8742578125 0.73 -118.82425781250001 0.73ZM-118.7242578125-8.79L-118.7242578125-8.79Q-117.0642578125-8.79 -115.9142578125-9.64Q-114.7742578125-10.5 -114.0642578125-12.45Q-113.3542578125-14.4 -113.0342578125-17.6Q-112.7242578125-20.8 -112.7242578125-25.54L-112.7242578125-25.54L-112.7242578125-42.09Q-112.7242578125-46.83 -113.0342578125-50.05Q-113.3542578125-53.27 -114.0642578125-55.25Q-114.7742578125-57.23 -115.9142578125-58.11Q-117.0642578125-58.98 -118.7242578125-58.98L-118.7242578125-58.98Q-120.4842578125-58.98 -121.6842578125-58.11Q-122.8742578125-57.23 -123.65425781249999-55.25Q-124.4342578125-53.27 -124.7842578125-50.05Q-125.1242578125-46.83 -125.1242578125-42.09L-125.1242578125-42.09L-125.1242578125-25.54Q-125.1242578125-20.8 -124.7842578125-17.6Q-124.4342578125-14.4 -123.65425781249999-12.45Q-122.8742578125-10.5 -121.6842578125-9.64Q-120.4842578125-8.79 -118.7242578125-8.79ZM-89.18753906249998 0L-89.18753906249998-88.82L-76.8275390625-88.82L-76.8275390625 0L-89.18753906249998 0ZM-63.15808593749998 0L-63.15808593749998-83.4L-32.24808593749999-83.4L-32.24808593749999-73.44L-50.508085937499985-73.44L-50.508085937499985-48.49L-36.398085937499985-48.49L-36.398085937499985-38.53L-50.508085937499985-38.53L-50.508085937499985-9.96L-31.758085937499985-9.96L-31.758085937499985 0L-63.15808593749998 0ZM-23.4107421875 0L-23.4107421875-67.24L-13.8907421875-67.24L-12.770742187500002-60.06L-12.770742187500002-60.01Q-11.3007421875-62.3 -9.6207421875-63.84Q-7.930742187500002-65.38 -6.130742187500001-66.31Q-4.320742187499999-67.24 -2.4407421874999997-67.63Q-0.5607421875000007-68.02  1.2892578125000007-68.02L 1.2892578125000007-68.02Q 7.199257812500001-68.02  10.399257812499997-63.89Q 13.5992578125-59.77  13.5992578125-51.51L 13.5992578125-51.51L 13.5992578125 0L 1.2492578125000016 0L 1.2492578125000016-51.07Q 1.2492578125000016-55.52 -0.12074218749999943-57.25Q-1.4907421875000004-58.98 -4.130742187500001-58.98L-4.130742187500001-58.98Q-5.980742187499999-58.98 -7.810742187500001-57.76Q-9.640742187499999-56.54 -11.0607421875-54.39L-11.0607421875-54.39L-11.0607421875 0L-23.4107421875 0ZM 27.7139453125 4.59L 36.4539453125 4.59Q 36.4539453125 8.94  38.063945312499996 10.74Q 39.673945312499995 12.55  43.0439453125 12.55L 43.0439453125 12.55Q 44.413945312500005 12.55  45.673945312499995 12.13Q 46.9439453125 11.72  47.9039453125 10.62Q 48.8539453125 9.52  49.4339453125 7.57Q 50.023945312500004 5.62  50.023945312500004 2.54L 50.023945312500004 2.54L 50.023945312500004-8.06Q 48.3639453125-5.91  45.7539453125-4.37Q 43.1439453125-2.83  39.283945312499995-2.83L 39.283945312499995-2.83Q 38.163945312500005-2.83  36.6439453125-3.05Q 35.1339453125-3.27  33.523945312500004-4.05Q 31.913945312499997-4.83  30.3439453125-6.42Q 28.783945312500002-8.01  27.5639453125-10.69Q 26.3439453125-13.38  25.5839453125-17.41Q 24.8339453125-21.44  24.8339453125-27.15L 24.8339453125-27.15L 24.8339453125-44.82Q 24.8339453125-50.29  25.5839453125-54.13Q 26.3439453125-57.96  27.5639453125-60.55Q 28.783945312500002-63.13  30.3739453125-64.6Q 31.9539453125-66.06  33.5939453125-66.82Q 35.2339453125-67.58  36.7939453125-67.77Q 38.3539453125-67.97  39.5739453125-67.97L 39.5739453125-67.97Q 42.0139453125-67.97  43.8939453125-67.33Q 45.773945312500004-66.7  47.163945312500005-65.65Q 48.563945312499996-64.6  49.533945312499995-63.28Q 50.5139453125-61.96  51.1939453125-60.64L 51.1939453125-60.64L 52.3239453125-67.29L 61.9339453125-67.29L 61.9339453125-2.73Q 61.9339453125 2.88  60.8639453125 7.4Q 59.7939453125 11.91  57.4939453125 15.11Q 55.2039453125 18.31  51.663945312500005 20.02Q 48.1239453125 21.73  43.1839453125 21.73L 43.1839453125 21.73Q 39.8639453125 21.73  36.9339453125 21.14Q 34.0039453125 20.56  31.8139453125 19.07Q 29.6139453125 17.58  28.3439453125 15.01Q 27.0739453125 12.45  27.0739453125 8.5L 27.0739453125 8.5Q 27.0739453125 7.81  27.2239453125 6.79Q 27.3639453125 5.76  27.7139453125 4.59L 27.7139453125 4.59ZM 43.4839453125-12.4L 43.4839453125-12.4Q 44.7039453125-12.4  45.6539453125-12.82Q 46.6039453125-13.23  47.3639453125-13.92Q 48.1239453125-14.6  48.6839453125-15.48Q 49.2439453125-16.36  49.6339453125-17.29L 49.6339453125-17.29L 49.6339453125-54.05Q 48.7039453125-56.1  47.163945312500005-57.54Q 45.6339453125-58.98  43.4339453125-58.98L 43.4339453125-58.98Q 42.063945312499996-58.98  40.9439453125-58.5Q 39.8239453125-58.01  38.9939453125-56.67Q 38.163945312500005-55.32  37.6939453125-52.95Q 37.2339453125-50.59  37.2339453125-46.83L 37.2339453125-46.83L 37.2339453125-24.71Q 37.2339453125-20.95  37.6939453125-18.55Q 38.163945312500005-16.16  38.9939453125-14.79Q 39.8239453125-13.43  40.9639453125-12.92Q 42.1139453125-12.4  43.4839453125-12.4ZM 81.47027343750001-76.86L 81.47027343750001-76.86Q 78.05027343750001-76.86  76.07027343750002-78.91Q 74.10027343750002-80.96  74.10027343750002-84.91L 74.10027343750002-84.91Q 74.10027343750002-87.11  74.61027343750001-88.6Q 75.12027343750002-90.09  76.07027343750002-90.99Q 77.03027343750001-91.89  78.39027343750001-92.31Q 79.76027343750002-92.72  81.52027343750001-92.72L 81.52027343750001-92.72Q 85.1802734375-92.72  87.08027343750001-90.87Q 88.99027343750001-89.01  88.99027343750001-84.91L 88.99027343750001-84.91Q 88.99027343750001-81.1  87.06027343750002-78.98Q 85.13027343750002-76.86  81.47027343750001-76.86ZM 75.07027343750002 0L 75.07027343750002-67.24L 87.4302734375-67.24L 87.4302734375 0L 75.07027343750002 0ZM 100.31972656249998 0L 100.31972656249998-67.24L 109.83972656249999-67.24L 110.95972656249998-60.06L 110.95972656249998-60.01Q 112.42972656249998-62.3  114.10972656249999-63.84Q 115.79972656249998-65.38  117.59972656249998-66.31Q 119.40972656249998-67.24  121.2897265625-67.63Q 123.16972656249999-68.02  125.01972656249998-68.02L 125.01972656249998-68.02Q 130.92972656249998-68.02  134.12972656249997-63.89Q 137.32972656249999-59.77  137.32972656249999-51.51L 137.32972656249999-51.51L 137.32972656249999 0L 124.97972656249999 0L 124.97972656249999-51.07Q 124.97972656249999-55.52  123.60972656249999-57.25Q 122.23972656249998-58.98  119.59972656249998-58.98L 119.59972656249998-58.98Q 117.74972656249999-58.98  115.91972656249999-57.76Q 114.08972656249999-56.54  112.66972656249999-54.39L 112.66972656249999-54.39L 112.66972656249999 0L 100.31972656249998 0ZM 166.3344140625 0.73L 166.3344140625 0.73Q 161.9844140625 0.73  158.6444140625-0.88Q 155.2944140625-2.49  153.0044140625-5.91Q 150.7044140625-9.33  149.5344140625-14.67Q 148.3644140625-20.02  148.3644140625-27.54L 148.3644140625-27.54L 148.3644140625-40.23Q 148.3644140625-46.63  149.3144140625-51.2Q 150.2644140625-55.76  151.8044140625-58.86Q 153.3444140625-61.96  155.3744140625-63.77Q 157.3944140625-65.58  159.5444140625-66.53Q 161.69441406250002-67.48  163.8144140625-67.75Q 165.94441406250002-68.02  167.7444140625-68.02L 167.7444140625-68.02Q 171.0644140625-68.02  174.1444140625-67.02Q 177.2244140625-66.02  179.5644140625-63.6Q 181.9044140625-61.18  183.3044140625-57.13Q 184.69441406250002-53.08  184.69441406250002-47.02L 184.69441406250002-47.02Q 184.69441406250002-44.97  184.5744140625-42.87Q 184.44441406250002-40.77  184.2544140625-38.75Q 184.0544140625-36.72  183.7444140625-34.81Q 183.4244140625-32.91  183.0844140625-31.3L 183.0844140625-31.3L 160.7644140625-31.3L 160.7644140625-24.46Q 160.7644140625-20.07  161.10441406249998-17.07Q 161.4544140625-14.06  162.2544140625-12.23Q 163.0644140625-10.4  164.4544140625-9.59Q 165.8444140625-8.79  167.94441406250002-8.79L 167.94441406250002-8.79Q 169.0644140625-8.79  170.1444140625-9.25Q 171.2144140625-9.72  172.0244140625-10.79Q 172.8244140625-11.87  173.3144140625-13.65Q 173.8044140625-15.43  173.8044140625-18.07L 173.8044140625-18.07L 173.8044140625-20.17L 184.10441406249998-20.17L 184.10441406249998-17.58Q 184.10441406249998-8.01  179.5444140625-3.64Q 174.9744140625 0.73  166.3344140625 0.73ZM 160.7644140625-39.6L 173.1644140625-39.6Q 173.2144140625-40.14  173.2644140625-41.04Q 173.3144140625-41.94  173.3444140625-42.92Q 173.3644140625-43.9  173.3644140625-44.85Q 173.3644140625-45.8  173.3644140625-46.48L 173.3644140625-46.48Q 173.3644140625-53.13  171.8044140625-56.05Q 170.2344140625-58.98  167.1644140625-58.98L 167.1644140625-58.98Q 165.5544140625-58.98  164.3344140625-58.23Q 163.1144140625-57.47  162.3244140625-55.69Q 161.5444140625-53.91  161.1544140625-50.98Q 160.7644140625-48.05  160.7644140625-43.7L 160.7644140625-43.7L 160.7644140625-39.6Z" data-textpath="SolEngine" data-text-anchor="middle" data-font-size="100" data-letterspacing="0" data-side="left" data-offset="0" data-dx="0" data-dy="94.5" data-xmlspace="preserve" data-href="" data-font="Fjalla One" data-font-src="/Content/clientfonts/fjallaone.woff" data-font-scale="contain" transform="translate(182,94.5)" data-x="182" data-y="0" fill="url('#linearGradientSklihak5ug8')"></path></g></svg></g><g transform="matrix(0.9993,0,0,0.9993,365.614,233.664)"><svg width="0" height="186" style="overflow: visible;"><defs><linearGradient x1="0" y1="0.5" x2="1" y2="0.5" id="linearGradientSklihak5ugb"><stop offset="0%" stop-color="#000000"></stop><stop offset="100%" stop-color="#000000"></stop></linearGradient></defs><g><path d="" data-textpath="" data-text-anchor="middle" data-font-size="100" data-letterspacing="0" data-side="left" data-offset="0" data-dx="0" data-dy="94.5" data-xmlspace="preserve" data-href="" data-font="Fjalla One" data-font-src="/Content/clientfonts/fjallaone.woff" data-font-scale="contain" transform="translate(106.5,94.5)" data-x="106.5" data-y="0" fill="url('#linearGradientSklihak5ugb')"></path></g></svg></g><g transform="matrix(1.0473,0,0,1.4802,134.1128,126.9585)"><svg width="186.742" height="17.218999999999994" viewBox="-5,79.525,186.742,17.218999999999994" class="thumb"><defs><linearGradient x1="0" y1="0.5" x2="1" y2="0.5" id="linearGradientSklihak5u34"><stop offset="0%" stop-color="#000000"></stop><stop offset="100%" stop-color="#000000"></stop></linearGradient></defs><g></g><g><rect y="84.525" width="176.742" height="7.219" fill="url('#linearGradientSklihak5u34')"></rect></g></svg></g><g transform="matrix(0.8661,0,0,1.4802,148.0375,147.3995)"><svg width="186.742" height="17.218999999999994" viewBox="-5,79.525,186.742,17.218999999999994" class="thumb"><defs><linearGradient x1="0" y1="0.5" x2="1" y2="0.5" id="linearGradientSklihak5u3a"><stop offset="0%" stop-color="#000000"></stop><stop offset="100%" stop-color="#000000"></stop></linearGradient></defs><g></g><g><rect y="84.525" width="176.742" height="7.219" fill="url('#linearGradientSklihak5u3a')"></rect></g></svg></g><g transform="matrix(0.5845,0,0,1.4802,178.1281,168.8135)"><svg width="186.742" height="17.218999999999994" viewBox="-5,79.525,186.742,17.218999999999994" class="thumb"><defs><linearGradient x1="0" y1="0.5" x2="1" y2="0.5" id="linearGradientSklihak5u3g"><stop offset="0%" stop-color="#000000"></stop><stop offset="100%" stop-color="#000000"></stop></linearGradient></defs><g></g><g><rect y="84.525" width="176.742" height="7.219" fill="url('#linearGradientSklihak5u3g')"></rect></g></svg></g><g transform="matrix(0.3499,0,0,1.4802,198.9708,189.2545)"><svg width="186.742" height="17.218999999999994" viewBox="-5,79.525,186.742,17.218999999999994" class="thumb"><defs><linearGradient x1="0" y1="0.5" x2="1" y2="0.5" id="linearGradientSklihak5u3m"><stop offset="0%" stop-color="#000000"></stop><stop offset="100%" stop-color="#000000"></stop></linearGradient></defs><g></g><g><rect y="84.525" width="176.742" height="7.219" fill="url('#linearGradientSklihak5u3m')"></rect></g></svg></g></g></svg>