<svg class="thumb" width="999" height="455" viewBox="-35,-23,999,455" xmlns="http://www.w3.org/2000/svg" xmlns:inkscape="http://www.inkscape.org/namespaces/inkscape" xmlns:sodipodi="http://sodipodi.sourceforge.net/DTD/sodipodi-0.dtd" xmlns:xlink="http://www.w3.org/1999/xlink" xmlns:ns1="http://www.inkscape.org/namespaces/inkscape" xmlns:sketch="http://www.bohemiancoding.com/sketch/ns"><defs></defs><g><g transform="matrix(2.7273,0,0,2.7273,1.5855,152.8863)"><svg width="100.99799999999999" height="94.36849999999998" viewBox="-0.49799999999999933,2.8164999999999996,100.99799999999999,94.36849999999998"><defs><linearGradient x1="0" y1="0.5" x2="1" y2="0.5" id="linearGradientSklihx5q996x"><stop offset="0%" stop-color="#2592b0" stop-opacity="0.81"></stop><stop offset="100%" stop-color="#2592b0" stop-opacity="0.81"></stop></linearGradient></defs><path d="M95.472,22.342c-0.002-0.012-0.001-0.024-0.004-0.037c-0.002-0.007-0.003-0.014-0.005-0.021   c-0.007-0.027-0.021-0.052-0.031-0.079c-0.02-0.054-0.038-0.109-0.067-0.159c-0.011-0.019-0.025-0.034-0.037-0.052   c-0.015-0.021-0.03-0.041-0.046-0.061c-0.024-0.031-0.045-0.063-0.072-0.091c-0.024-0.024-0.055-0.043-0.081-0.065   c-0.035-0.028-0.065-0.061-0.104-0.084L72.776,7.965c-0.322-0.198-0.729-0.198-1.051,0L49.997,21.369L28.274,7.965   c-0.321-0.198-0.729-0.198-1.05,0L4.977,21.692c-0.295,0.182-0.475,0.504-0.475,0.851v54.914c0,0.347,0.18,0.669,0.475,0.851   l22.248,13.727c0.006,0.004,0.013,0.005,0.019,0.008c0.007,0.005,0.012,0.011,0.019,0.015c0.048,0.027,0.1,0.042,0.15,0.061   c0.022,0.008,0.044,0.022,0.066,0.029c0.004,0.001,0.008,0.001,0.012,0.002c0.081,0.021,0.163,0.032,0.246,0.033   c0.004,0,0.008,0.002,0.012,0.002h0.001l0,0c0.041,0,0.081-0.011,0.122-0.016c0.042-0.005,0.085-0.005,0.126-0.016   c0.004-0.001,0.008-0.004,0.013-0.005c0.025-0.007,0.049-0.021,0.073-0.029c0.051-0.018,0.103-0.034,0.15-0.061   c0.001,0,0.002,0,0.003-0.001c0.007-0.004,0.013-0.01,0.02-0.015c0.006-0.003,0.013-0.004,0.019-0.008l66.749-41.181   c0.295-0.182,0.475-0.504,0.475-0.851V22.543C95.498,22.475,95.485,22.408,95.472,22.342z M28.749,36.834l20.248-12.499v25.109   L28.749,61.939V36.834z M50.997,50.562l20.254-12.498V63.17L50.997,75.666V50.562z M28.749,64.288l20.248-12.493v25.104   L28.749,89.392V64.288z M93.498,49.445L73.251,61.937V36.83l20.247-12.494V49.445z" fill="url('#linearGradientSklihx5q996x')"></path></svg></g><g transform="matrix(-2.7269,-0.0476,0.0476,-2.7269,274.0547,261.61)"><svg width="100.99799999999999" height="94.36849999999998" viewBox="-0.49799999999999933,2.8164999999999996,100.99799999999999,94.36849999999998"><defs><linearGradient x1="0" y1="0.5" x2="1" y2="0.5" id="linearGradientSklihx5q9973"><stop offset="0%" stop-color="#650d88" stop-opacity="0.67"></stop><stop offset="100%" stop-color="#650d88" stop-opacity="0.67"></stop></linearGradient></defs><path d="M95.472,22.342c-0.002-0.012-0.001-0.024-0.004-0.037c-0.002-0.007-0.003-0.014-0.005-0.021   c-0.007-0.027-0.021-0.052-0.031-0.079c-0.02-0.054-0.038-0.109-0.067-0.159c-0.011-0.019-0.025-0.034-0.037-0.052   c-0.015-0.021-0.03-0.041-0.046-0.061c-0.024-0.031-0.045-0.063-0.072-0.091c-0.024-0.024-0.055-0.043-0.081-0.065   c-0.035-0.028-0.065-0.061-0.104-0.084L72.776,7.965c-0.322-0.198-0.729-0.198-1.051,0L49.997,21.369L28.274,7.965   c-0.321-0.198-0.729-0.198-1.05,0L4.977,21.692c-0.295,0.182-0.475,0.504-0.475,0.851v54.914c0,0.347,0.18,0.669,0.475,0.851   l22.248,13.727c0.006,0.004,0.013,0.005,0.019,0.008c0.007,0.005,0.012,0.011,0.019,0.015c0.048,0.027,0.1,0.042,0.15,0.061   c0.022,0.008,0.044,0.022,0.066,0.029c0.004,0.001,0.008,0.001,0.012,0.002c0.081,0.021,0.163,0.032,0.246,0.033   c0.004,0,0.008,0.002,0.012,0.002h0.001l0,0c0.041,0,0.081-0.011,0.122-0.016c0.042-0.005,0.085-0.005,0.126-0.016   c0.004-0.001,0.008-0.004,0.013-0.005c0.025-0.007,0.049-0.021,0.073-0.029c0.051-0.018,0.103-0.034,0.15-0.061   c0.001,0,0.002,0,0.003-0.001c0.007-0.004,0.013-0.01,0.02-0.015c0.006-0.003,0.013-0.004,0.019-0.008l66.749-41.181   c0.295-0.182,0.475-0.504,0.475-0.851V22.543C95.498,22.475,95.485,22.408,95.472,22.342z M28.749,36.834l20.248-12.499v25.109   L28.749,61.939V36.834z M50.997,50.562l20.254-12.498V63.17L50.997,75.666V50.562z M28.749,64.288l20.248-12.493v25.104   L28.749,89.392V64.288z M93.498,49.445L73.251,61.937V36.83l20.247-12.494V49.445z" fill="url('#linearGradientSklihx5q9973')"></path></svg></g><g transform="matrix(0.8924,-0.0156,0.0156,0.8924,229.0415,278.4818)"><svg width="768.1666666666666" height="188" style="overflow: visible;"><defs><linearGradient x1="0" y1="0.5" x2="1" y2="0.5" id="linearGradientSklihx5q997b"><stop offset="0%" stop-color="#650d88" stop-opacity="0.670588"></stop><stop offset="100%" stop-color="#650d88" stop-opacity="0.670588"></stop></linearGradient></defs><g><path d="M-285.8116015625-35.01L-285.8116015625 0L-298.5116015625 0L-298.5116015625-35.01Q-298.5116015625-37.5 -299.8316015625-38.79Q-301.1516015625-40.09 -303.73160156250003-40.09L-303.73160156250003-40.09L-320.2416015625-40.09L-320.2416015625 0L-332.9316015625 0L-332.9316015625-46.48Q-332.9316015625-47.8 -332.4416015625-48.95Q-331.9616015625-50.1 -331.0816015625-50.95Q-330.2016015625-51.81 -329.0316015625-52.29Q-327.8516015625-52.78 -326.5416015625-52.78L-326.5416015625-52.78L-303.6416015625-52.78Q-301.0016015625-52.78 -297.9716015625-51.86Q-294.9416015625-50.93 -292.2116015625-48.88L-292.2116015625-48.88L-292.2116015625-52.78L-275.0216015625-52.78Q-273.2216015625-52.78 -271.2116015625-52.37Q-269.2116015625-51.95 -267.23160156250003-51.07Q-265.2616015625-50.2 -263.4516015625-48.8Q-261.6416015625-47.41 -260.2816015625-45.43Q-258.9116015625-43.46 -258.0816015625-40.87Q-257.2516015625-38.28 -257.2516015625-35.01L-257.2516015625-35.01L-257.2516015625 0L-269.9416015625 0L-269.9416015625-35.01Q-269.9416015625-37.5 -271.1916015625-38.79Q-272.4316015625-40.09 -275.0216015625-40.09L-275.0216015625-40.09L-286.4516015625-40.09Q-285.8116015625-37.74 -285.8116015625-35.01L-285.8116015625-35.01ZM-188.7980859375-35.3L-188.7980859375-35.3Q-188.7980859375-32.67 -189.7180859375-29.61Q-190.6480859375-26.56 -192.7280859375-23.95Q-194.7980859375-21.34 -198.1480859375-19.58Q-201.4880859375-17.82 -206.2780859375-17.82L-206.2780859375-17.82L-229.1780859375-17.82L-229.1780859375-29.88L-206.2780859375-29.88Q-203.6880859375-29.88 -202.2680859375-31.47Q-200.8580859375-33.06 -200.8580859375-35.4L-200.8580859375-35.4Q-200.8580859375-37.89 -202.4380859375-39.31Q-204.0280859375-40.72 -206.2780859375-40.72L-206.2780859375-40.72L-229.1780859375-40.72Q-231.7580859375-40.72 -233.1780859375-39.14Q-234.5980859375-37.55 -234.5980859375-35.21L-234.5980859375-35.21L-234.5980859375-17.48Q-234.5980859375-14.94 -233.0080859375-13.53Q-231.4180859375-12.11 -229.0780859375-12.11L-229.0780859375-12.11L-206.2780859375-12.11L-206.2780859375 0L-229.1780859375 0Q-231.8080859375 0 -234.86808593749998-0.93Q-237.9180859375-1.86 -240.5280859375-3.93Q-243.1380859375-6.01 -244.8980859375-9.35Q-246.6580859375-12.7 -246.6580859375-17.48L-246.6580859375-17.48L-246.6580859375-35.3Q-246.6580859375-37.94 -245.7280859375-40.99Q-244.7980859375-44.04 -242.7280859375-46.66Q-240.6480859375-49.27 -237.3080859375-51.03Q-233.95808593750002-52.78 -229.1780859375-52.78L-229.1780859375-52.78L-206.2780859375-52.78Q-203.6380859375-52.78 -200.5880859375-51.86Q-197.5380859375-50.93 -194.9180859375-48.85Q-192.3080859375-46.78 -190.5480859375-43.43Q-188.7980859375-40.09 -188.7980859375-35.3ZM-133.12605468750002-35.01L-133.12605468750002 0L-145.8260546875 0L-145.8260546875-35.01Q-145.8260546875-37.5 -147.1460546875-38.79Q-148.4660546875-40.09 -151.0460546875-40.09L-151.0460546875-40.09L-167.5560546875-40.09L-167.5560546875 0L-180.2460546875 0L-180.2460546875-46.48Q-180.2460546875-47.8 -179.7560546875-48.95Q-179.2760546875-50.1 -178.3960546875-50.95Q-177.5160546875-51.81 -176.3460546875-52.29Q-175.1660546875-52.78 -173.8560546875-52.78L-173.8560546875-52.78L-150.9560546875-52.78Q-148.3160546875-52.78 -145.28605468749998-51.86Q-142.2560546875-50.93 -139.5260546875-48.88L-139.5260546875-48.88L-139.5260546875-52.78L-122.3360546875-52.78Q-120.5360546875-52.78 -118.5260546875-52.37Q-116.5260546875-51.95 -114.5460546875-51.07Q-112.5760546875-50.2 -110.7660546875-48.8Q-108.9560546875-47.41 -107.5960546875-45.43Q-106.2260546875-43.46 -105.3960546875-40.87Q-104.5660546875-38.28 -104.5660546875-35.01L-104.5660546875-35.01L-104.5660546875 0L-117.2560546875 0L-117.2560546875-35.01Q-117.2560546875-37.5 -118.5060546875-38.79Q-119.7460546875-40.09 -122.3360546875-40.09L-122.3360546875-40.09L-133.7660546875-40.09Q-133.12605468750002-37.74 -133.12605468750002-35.01L-133.12605468750002-35.01ZM-35.4725390625-35.01L-35.4725390625-17.82Q-35.4725390625-14.55 -36.3025390625-11.94Q-37.1325390625-9.33 -38.5025390625-7.35Q-39.8725390625-5.37 -41.6725390625-3.98Q-43.4825390625-2.59 -45.4625390625-1.71Q-47.4325390625-0.83 -49.4625390625-0.42Q-51.4925390625 0 -53.2925390625 0L-53.2925390625 0L-76.1925390625 0Q-78.8325390625 0 -81.9625390625-0.93Q-85.0825390625-1.86 -87.7425390625-3.98Q-90.4025390625-6.1 -92.1825390625-9.5Q-93.9725390625-12.89 -93.9725390625-17.82L-93.9725390625-17.82L-93.9725390625-35.01Q-93.9725390625-39.89 -92.1825390625-43.29Q-90.4025390625-46.68 -87.7425390625-48.8Q-85.0825390625-50.93 -81.9625390625-51.86Q-78.8325390625-52.78 -76.1925390625-52.78L-76.1925390625-52.78L-53.2925390625-52.78Q-48.4125390625-52.78 -44.9925390625-51.03Q-41.5725390625-49.27 -39.4725390625-46.61Q-37.3825390625-43.95 -36.4225390625-40.82Q-35.4725390625-37.7 -35.4725390625-35.01L-35.4725390625-35.01ZM-48.1725390625-17.82L-48.1725390625-34.91Q-48.1725390625-37.55 -49.4825390625-38.82Q-50.8025390625-40.09 -53.2925390625-40.09L-53.2925390625-40.09L-76.1025390625-40.09Q-78.64253906249999-40.09 -79.9525390625-38.79Q-81.2725390625-37.5 -81.2725390625-35.01L-81.2725390625-35.01L-81.2725390625-17.82Q-81.2725390625-15.33 -79.9525390625-14.01Q-78.64253906249999-12.7 -76.1025390625-12.7L-76.1025390625-12.7L-53.2925390625-12.7Q-50.7125390625-12.7 -49.4425390625-14.01Q-48.1725390625-15.33 -48.1725390625-17.82L-48.1725390625-17.82ZM-11.789648437499991-75.1L-11.789648437499991-63.62L-24.489648437499994-63.62L-24.489648437499994-75.1L-11.789648437499991-75.1ZM-11.789648437499991-52.78L-11.789648437499991 0L-24.489648437499994 0L-24.489648437499994-52.78L-11.789648437499991-52.78ZM 50.369179687500015-48.88L 50.369179687500015-48.88Q 51.149179687500016-47.07  50.77917968750001-45.21Q 50.41917968750001-43.36  49.09917968750001-41.99L 49.09917968750001-41.99L 19.749179687500014-12.7L 50.269179687500014-12.7L 50.269179687500014 0L 4.469179687500015 0Q 2.5191796875000136 0  0.9291796875000138-1.1Q-0.6608203124999861-2.2 -1.4408203124999854-3.91L-1.4408203124999854-3.91Q-2.170820312499986-5.71 -1.810820312499986-7.59Q-1.4408203124999854-9.47 -0.020820312499985505-10.89L-0.020820312499985505-10.89L 29.179179687500017-40.09L-1.3408203124999858-40.09L-1.3408203124999858-52.78L 44.55917968750001-52.78Q 46.45917968750001-52.78  48.049179687500015-51.76Q 49.62917968750001-50.73  50.369179687500015-48.88ZM 114.96660156250002-35.3L 114.96660156250002-17.48Q 114.96660156250002-14.84  114.03660156250001-11.79Q 113.10660156250002-8.74  111.03660156250001-6.13Q 108.95660156250001-3.52  105.61660156250002-1.76Q 102.26660156250001 0  97.48660156250001 0L 97.48660156250001 0L 74.58660156250002 0Q 71.9466015625 0  68.89660156250001-0.93Q 65.84660156250001-1.86  63.23660156250001-3.93Q 60.616601562500016-6.01  58.866601562500016-9.35Q 57.10660156250002-12.7  57.10660156250002-17.48L 57.10660156250002-17.48Q 57.10660156250002-20.12  58.03660156250002-23.19Q 58.95660156250001-26.27  61.03660156250001-28.88Q 63.10660156250002-31.49  66.45660156250001-33.25Q 69.79660156250002-35.01  74.58660156250002-35.01L 74.58660156250002-35.01L 97.48660156250001-35.01L 97.48660156250001-22.9L 74.58660156250002-22.9Q 71.99660156250002-22.9  70.57660156250002-21.31Q 69.16660156250002-19.73  69.16660156250002-17.38L 69.16660156250002-17.38Q 69.16660156250002-14.89  70.79660156250002-13.5Q 72.43660156250002-12.11  74.68660156250002-12.11L 74.68660156250002-12.11L 97.48660156250001-12.11Q 100.07660156250002-12.11  101.48660156250001-13.67Q 102.90660156250001-15.23  102.90660156250001-17.58L 102.90660156250001-17.58L 102.90660156250001-35.3Q 102.90660156250001-37.79  101.36660156250002-39.26Q 99.82660156250002-40.72  97.48660156250001-40.72L 97.48660156250001-40.72L 69.60660156250002-40.72L 69.60660156250002-52.78L 97.48660156250001-52.78Q 100.12660156250001-52.78  103.17660156250001-51.86Q 106.22660156250001-50.93  108.83660156250002-48.85Q 111.4466015625-46.78  113.20660156250001-43.43Q 114.96660156250002-40.09  114.96660156250002-35.3L 114.96660156250002-35.3ZM 173.61332031250004-52.78L 173.61332031250004-40.09L 151.44332031250002-40.09L 151.44332031250002 0L 138.60332031250002 0L 138.60332031250002-40.09L 122.09332031250003-40.09L 122.09332031250003-52.78L 138.60332031250002-52.78L 138.60332031250002-70.02L 151.44332031250002-70.02L 151.44332031250002-52.78L 173.61332031250004-52.78ZM 194.85097656250002-75.1L 194.85097656250002-63.62L 182.15097656250003-63.62L 182.15097656250003-75.1L 194.85097656250002-75.1ZM 194.85097656250002-52.78L 194.85097656250002 0L 182.15097656250003 0L 182.15097656250003-52.78L 194.85097656250002-52.78ZM 264.4298046875-35.01L 264.4298046875-17.82Q 264.4298046875-14.55  263.5998046875-11.94Q 262.7698046875-9.33  261.3998046875-7.35Q 260.0298046875-5.37  258.2298046875-3.98Q 256.4198046875-2.59  254.4398046875-1.71Q 252.46980468750002-0.83  250.4398046875-0.42Q 248.4098046875 0  246.6098046875 0L 246.6098046875 0L 223.7098046875 0Q 221.0698046875 0  217.9398046875-0.93Q 214.8198046875-1.86  212.1598046875-3.98Q 209.4998046875-6.1  207.7198046875-9.5Q 205.9298046875-12.89  205.9298046875-17.82L 205.9298046875-17.82L 205.9298046875-35.01Q 205.9298046875-39.89  207.7198046875-43.29Q 209.4998046875-46.68  212.1598046875-48.8Q 214.8198046875-50.93  217.9398046875-51.86Q 221.0698046875-52.78  223.7098046875-52.78L 223.7098046875-52.78L 246.6098046875-52.78Q 251.4898046875-52.78  254.9098046875-51.03Q 258.3298046875-49.27  260.4298046875-46.61Q 262.5198046875-43.95  263.4798046875-40.82Q 264.4298046875-37.7  264.4298046875-35.01L 264.4298046875-35.01ZM 251.7298046875-17.82L 251.7298046875-34.91Q 251.7298046875-37.55  250.4198046875-38.82Q 249.0998046875-40.09  246.6098046875-40.09L 246.6098046875-40.09L 223.7998046875-40.09Q 221.2598046875-40.09  219.9498046875-38.79Q 218.62980468749998-37.5  218.62980468749998-35.01L 218.62980468749998-35.01L 218.62980468749998-17.82Q 218.62980468749998-15.33  219.9498046875-14.01Q 221.2598046875-12.7  223.7998046875-12.7L 223.7998046875-12.7L 246.6098046875-12.7Q 249.1898046875-12.7  250.4598046875-14.01Q 251.7298046875-15.33  251.7298046875-17.82L 251.7298046875-17.82ZM 333.7126953125-29.3L 333.7126953125 0L 321.0226953125 0L 321.0226953125-29.3Q 321.0226953125-31.79  320.1626953125-33.76Q 319.3126953125-35.74  317.8426953125-37.16Q 316.3826953125-38.57  314.4026953125-39.33Q 312.42269531249997-40.09  310.1326953125-40.09L 310.1326953125-40.09L 287.9126953125-40.09L 287.9126953125 0L 275.2226953125 0L 275.2226953125-46.48Q 275.2226953125-47.8  275.7126953125-48.95Q 276.1926953125-50.1  277.0726953125-50.95Q 277.9526953125-51.81  279.1226953125-52.29Q 280.3026953125-52.78  281.6126953125-52.78L 281.6126953125-52.78L 310.2326953125-52.78Q 312.6226953125-52.78  315.2826953125-52.25Q 317.9426953125-51.71  320.5526953125-50.51Q 323.17269531249997-49.32  325.5326953125-47.49Q 327.9026953125-45.65  329.7326953125-43.04Q 331.5626953125-40.43  332.6426953125-37.01Q 333.7126953125-33.59  333.7126953125-29.3L 333.7126953125-29.3Z" data-textpath="memoization" data-text-anchor="middle" data-font-size="100" data-letterspacing="0" data-side="left" data-offset="0" data-dx="0" data-dy="96" data-xmlspace="preserve" data-href="" data-font="Audiowide" data-font-src="/Content/clientfonts/audiowide.woff" data-font-scale="contain" transform="translate(419,96)" data-x="419" data-y="0" fill="url('#linearGradientSklihx5q997b')"></path></g></svg></g><g transform="matrix(2.7273,0,0,2.7273,136.2219,45.8863)"><svg width="101" height="94.37450000000001" viewBox="-1.2870000000000004,3.237499999999999,101,94.37450000000001"><defs><linearGradient x1="0" y1="0.5" x2="1" y2="0.5" id="linearGradientSklihx5q997g"><stop offset="0%" stop-color="#650d88" stop-opacity="0.670588"></stop><stop offset="100%" stop-color="#650d88" stop-opacity="0.670588"></stop></linearGradient></defs><path fill="url('#linearGradientSklihx5q997g')" d="M94.687,36.493c-0.002-0.012-0.001-0.024-0.004-0.037c-0.002-0.007-0.003-0.014-0.005-0.021   c-0.007-0.027-0.021-0.052-0.031-0.079c-0.02-0.054-0.038-0.109-0.067-0.159c-0.011-0.019-0.025-0.034-0.037-0.052   c-0.015-0.021-0.03-0.041-0.046-0.061c-0.024-0.031-0.045-0.063-0.072-0.091c-0.024-0.024-0.055-0.043-0.081-0.065   c-0.035-0.028-0.065-0.061-0.104-0.084L72.129,22.201c-0.074-0.062-0.158-0.114-0.248-0.153L49.736,8.386   c-0.321-0.198-0.728-0.198-1.05,0L4.188,35.843c-0.295,0.182-0.475,0.504-0.475,0.851v27.457c0,0.347,0.18,0.669,0.475,0.852   l44.498,27.459c0.006,0.004,0.013,0.005,0.02,0.009c0.007,0.004,0.012,0.01,0.019,0.014c0.046,0.025,0.096,0.04,0.144,0.058   c0.025,0.01,0.047,0.025,0.073,0.032c0.004,0.001,0.008,0.001,0.012,0.002c0.08,0.021,0.163,0.032,0.245,0.033   c0.004,0,0.008,0.002,0.013,0.002h0h0c0.041,0,0.082-0.011,0.122-0.016c0.042-0.005,0.084-0.005,0.125-0.016   c0.004-0.001,0.008-0.004,0.013-0.005c0.026-0.007,0.05-0.021,0.075-0.03c0.05-0.018,0.102-0.033,0.148-0.06   c0.001,0,0.002,0,0.003-0.001c0.007-0.004,0.012-0.01,0.019-0.014c0.006-0.004,0.013-0.005,0.02-0.009l44.501-27.46   c0.295-0.182,0.475-0.504,0.475-0.851V36.694C94.713,36.625,94.7,36.559,94.687,36.493z M48.211,63.594L27.964,76.086V50.979   l20.248-12.491V63.594z M50.211,37.254l20.254-12.495v25.104L50.211,62.36V37.254z M50.211,64.709l20.254-12.496v25.108   L50.211,89.819V64.709z M72.466,76.087V50.979l20.247-12.492v25.107L72.466,76.087z"></path></svg></g></g></svg>